<mxfile host="Electron" agent="Mozilla/5.0 (Macintosh; Intel Mac OS X 10_15_7) AppleWebKit/537.36 (KHTML, like Gecko) draw.io/26.0.16 Chrome/132.0.6834.196 Electron/34.2.0 Safari/537.36" version="26.0.16">
  <diagram name="Page-1" id="b520641d-4fe3-3701-9064-5fc419738815">
    <mxGraphModel dx="5148" dy="3222" grid="1" gridSize="10" guides="1" tooltips="1" connect="1" arrows="1" fold="1" page="1" pageScale="1" pageWidth="1100" pageHeight="850" background="none" math="0" shadow="0">
      <root>
        <mxCell id="0" />
        <mxCell id="1" parent="0" />
        <mxCell id="HgGfvKjObObi69bd0dLE-1" value="" style="rounded=0;whiteSpace=wrap;html=1;strokeColor=none;shadow=1;" parent="1" vertex="1">
          <mxGeometry x="5500" y="1630" width="500" height="600" as="geometry" />
        </mxCell>
        <mxCell id="HgGfvKjObObi69bd0dLE-2" value="" style="rounded=0;whiteSpace=wrap;html=1;fillColor=#808080;shadow=0;strokeColor=none;" parent="1" vertex="1">
          <mxGeometry x="5500" y="1630" width="500" height="40" as="geometry" />
        </mxCell>
        <mxCell id="HgGfvKjObObi69bd0dLE-3" value="" style="ellipse;whiteSpace=wrap;html=1;aspect=fixed;strokeColor=none;fillColor=#C4C4C4;" parent="1" vertex="1">
          <mxGeometry x="5510" y="1635" width="30" height="30" as="geometry" />
        </mxCell>
        <mxCell id="HgGfvKjObObi69bd0dLE-4" value="" style="ellipse;whiteSpace=wrap;html=1;aspect=fixed;strokeColor=none;fillColor=#C4C4C4;" parent="1" vertex="1">
          <mxGeometry x="5550" y="1635" width="30" height="30" as="geometry" />
        </mxCell>
        <mxCell id="HgGfvKjObObi69bd0dLE-5" value="" style="ellipse;whiteSpace=wrap;html=1;aspect=fixed;strokeColor=none;fillColor=#C4C4C4;" parent="1" vertex="1">
          <mxGeometry x="5590" y="1635" width="30" height="30" as="geometry" />
        </mxCell>
        <mxCell id="HgGfvKjObObi69bd0dLE-6" value="&lt;font style=&quot;font-size: 24px;&quot;&gt;( /404 )&lt;/font&gt;" style="text;html=1;align=center;verticalAlign=middle;whiteSpace=wrap;rounded=0;" parent="1" vertex="1">
          <mxGeometry x="5500" y="1673" width="500" height="30" as="geometry" />
        </mxCell>
        <mxCell id="HgGfvKjObObi69bd0dLE-7" value="&lt;font style=&quot;font-size: 36px;&quot;&gt;404 페이지&lt;/font&gt;" style="text;html=1;align=center;verticalAlign=middle;whiteSpace=wrap;rounded=0;" parent="1" vertex="1">
          <mxGeometry x="5500" y="1707" width="500" height="30" as="geometry" />
        </mxCell>
        <mxCell id="HgGfvKjObObi69bd0dLE-9" value="" style="rounded=0;whiteSpace=wrap;html=1;fillColor=#EDEDED;strokeColor=none;" parent="1" vertex="1">
          <mxGeometry x="5560" y="1780" width="380" height="400" as="geometry" />
        </mxCell>
        <mxCell id="HgGfvKjObObi69bd0dLE-10" value="" style="rounded=0;whiteSpace=wrap;html=1;strokeColor=none;shadow=1;" parent="1" vertex="1">
          <mxGeometry x="5500" y="2351.25" width="500" height="600" as="geometry" />
        </mxCell>
        <mxCell id="HgGfvKjObObi69bd0dLE-11" value="" style="rounded=0;whiteSpace=wrap;html=1;fillColor=#808080;shadow=0;strokeColor=none;" parent="1" vertex="1">
          <mxGeometry x="5500" y="2351.25" width="500" height="40" as="geometry" />
        </mxCell>
        <mxCell id="HgGfvKjObObi69bd0dLE-12" value="" style="ellipse;whiteSpace=wrap;html=1;aspect=fixed;strokeColor=none;fillColor=#C4C4C4;" parent="1" vertex="1">
          <mxGeometry x="5510" y="2356.25" width="30" height="30" as="geometry" />
        </mxCell>
        <mxCell id="HgGfvKjObObi69bd0dLE-13" value="" style="ellipse;whiteSpace=wrap;html=1;aspect=fixed;strokeColor=none;fillColor=#C4C4C4;" parent="1" vertex="1">
          <mxGeometry x="5550" y="2356.25" width="30" height="30" as="geometry" />
        </mxCell>
        <mxCell id="HgGfvKjObObi69bd0dLE-14" value="" style="ellipse;whiteSpace=wrap;html=1;aspect=fixed;strokeColor=none;fillColor=#C4C4C4;" parent="1" vertex="1">
          <mxGeometry x="5590" y="2356.25" width="30" height="30" as="geometry" />
        </mxCell>
        <mxCell id="HgGfvKjObObi69bd0dLE-15" value="&lt;font style=&quot;font-size: 24px;&quot;&gt;( / )&lt;/font&gt;" style="text;html=1;align=center;verticalAlign=middle;whiteSpace=wrap;rounded=0;" parent="1" vertex="1">
          <mxGeometry x="5500" y="2394.25" width="500" height="30" as="geometry" />
        </mxCell>
        <mxCell id="HgGfvKjObObi69bd0dLE-16" value="&lt;font style=&quot;font-size: 36px;&quot;&gt;메인 페이지&lt;/font&gt;" style="text;html=1;align=center;verticalAlign=middle;whiteSpace=wrap;rounded=0;" parent="1" vertex="1">
          <mxGeometry x="5500" y="2428.25" width="500" height="30" as="geometry" />
        </mxCell>
        <mxCell id="HgGfvKjObObi69bd0dLE-18" value="" style="shape=ext;double=1;rounded=0;whiteSpace=wrap;html=1;strokeColor=none;fillColor=#CCCCCC;" parent="1" vertex="1">
          <mxGeometry x="5560" y="2501.25" width="380" height="60" as="geometry" />
        </mxCell>
        <mxCell id="HgGfvKjObObi69bd0dLE-19" value="" style="shape=ext;double=1;rounded=0;whiteSpace=wrap;html=1;strokeColor=none;fillColor=#CCCCCC;" parent="1" vertex="1">
          <mxGeometry x="5561" y="2581.25" width="380" height="240" as="geometry" />
        </mxCell>
        <mxCell id="HgGfvKjObObi69bd0dLE-20" value="" style="shape=ext;double=1;rounded=0;whiteSpace=wrap;html=1;strokeColor=none;fillColor=#CCCCCC;" parent="1" vertex="1">
          <mxGeometry x="5560" y="2841.25" width="380" height="60" as="geometry" />
        </mxCell>
        <mxCell id="HgGfvKjObObi69bd0dLE-39" value="" style="rounded=0;whiteSpace=wrap;html=1;strokeColor=none;shadow=1;" parent="1" vertex="1">
          <mxGeometry x="6720" y="3700" width="500" height="600" as="geometry" />
        </mxCell>
        <mxCell id="HgGfvKjObObi69bd0dLE-40" value="" style="rounded=0;whiteSpace=wrap;html=1;fillColor=#808080;shadow=0;strokeColor=none;" parent="1" vertex="1">
          <mxGeometry x="6720" y="3700" width="500" height="40" as="geometry" />
        </mxCell>
        <mxCell id="HgGfvKjObObi69bd0dLE-41" value="" style="ellipse;whiteSpace=wrap;html=1;aspect=fixed;strokeColor=none;fillColor=#C4C4C4;" parent="1" vertex="1">
          <mxGeometry x="6730" y="3705" width="30" height="30" as="geometry" />
        </mxCell>
        <mxCell id="HgGfvKjObObi69bd0dLE-42" value="" style="ellipse;whiteSpace=wrap;html=1;aspect=fixed;strokeColor=none;fillColor=#C4C4C4;" parent="1" vertex="1">
          <mxGeometry x="6770" y="3705" width="30" height="30" as="geometry" />
        </mxCell>
        <mxCell id="HgGfvKjObObi69bd0dLE-43" value="" style="ellipse;whiteSpace=wrap;html=1;aspect=fixed;strokeColor=none;fillColor=#C4C4C4;" parent="1" vertex="1">
          <mxGeometry x="6810" y="3705" width="30" height="30" as="geometry" />
        </mxCell>
        <mxCell id="HgGfvKjObObi69bd0dLE-44" value="&lt;span style=&quot;font-size: 24px;&quot;&gt;( /login )&lt;/span&gt;" style="text;html=1;align=center;verticalAlign=middle;whiteSpace=wrap;rounded=0;" parent="1" vertex="1">
          <mxGeometry x="6720" y="3743" width="500" height="30" as="geometry" />
        </mxCell>
        <mxCell id="HgGfvKjObObi69bd0dLE-45" value="&lt;span style=&quot;font-size: 36px;&quot;&gt;로그인 페이지&lt;/span&gt;" style="text;html=1;align=center;verticalAlign=middle;whiteSpace=wrap;rounded=0;" parent="1" vertex="1">
          <mxGeometry x="6720" y="3777" width="500" height="30" as="geometry" />
        </mxCell>
        <mxCell id="HgGfvKjObObi69bd0dLE-50" value="" style="shape=ext;double=1;rounded=0;whiteSpace=wrap;html=1;strokeColor=none;fillColor=#E6E6E6;" parent="1" vertex="1">
          <mxGeometry x="6810.5" y="3930" width="318.5" height="240" as="geometry" />
        </mxCell>
        <mxCell id="HgGfvKjObObi69bd0dLE-56" value="" style="rounded=0;whiteSpace=wrap;html=1;strokeColor=none;fillColor=#CCCCCC;" parent="1" vertex="1">
          <mxGeometry x="6837" y="3985" width="129" height="130" as="geometry" />
        </mxCell>
        <mxCell id="HgGfvKjObObi69bd0dLE-53" value="" style="shape=actor;whiteSpace=wrap;html=1;strokeColor=none;" parent="1" vertex="1">
          <mxGeometry x="6855.5" y="4005" width="92" height="110" as="geometry" />
        </mxCell>
        <mxCell id="HgGfvKjObObi69bd0dLE-57" value="" style="rounded=0;whiteSpace=wrap;html=1;strokeColor=none;fillColor=#CCCCCC;" parent="1" vertex="1">
          <mxGeometry x="6989" y="3985" width="120" height="35" as="geometry" />
        </mxCell>
        <mxCell id="HgGfvKjObObi69bd0dLE-60" value="" style="rounded=0;whiteSpace=wrap;html=1;strokeColor=none;fillColor=#CCCCCC;" parent="1" vertex="1">
          <mxGeometry x="6989" y="4032.5" width="120" height="35" as="geometry" />
        </mxCell>
        <mxCell id="HgGfvKjObObi69bd0dLE-61" value="" style="rounded=0;whiteSpace=wrap;html=1;strokeColor=none;fillColor=#CCCCCC;" parent="1" vertex="1">
          <mxGeometry x="6989" y="4080" width="120" height="35" as="geometry" />
        </mxCell>
        <mxCell id="HgGfvKjObObi69bd0dLE-76" value="" style="rounded=0;whiteSpace=wrap;html=1;strokeColor=none;shadow=1;" parent="1" vertex="1">
          <mxGeometry x="7350" y="3700" width="500" height="600" as="geometry" />
        </mxCell>
        <mxCell id="HgGfvKjObObi69bd0dLE-77" value="" style="rounded=0;whiteSpace=wrap;html=1;fillColor=#808080;shadow=0;strokeColor=none;" parent="1" vertex="1">
          <mxGeometry x="7350" y="3700" width="500" height="40" as="geometry" />
        </mxCell>
        <mxCell id="HgGfvKjObObi69bd0dLE-78" value="" style="ellipse;whiteSpace=wrap;html=1;aspect=fixed;strokeColor=none;fillColor=#C4C4C4;" parent="1" vertex="1">
          <mxGeometry x="7360" y="3705" width="30" height="30" as="geometry" />
        </mxCell>
        <mxCell id="HgGfvKjObObi69bd0dLE-79" value="" style="ellipse;whiteSpace=wrap;html=1;aspect=fixed;strokeColor=none;fillColor=#C4C4C4;" parent="1" vertex="1">
          <mxGeometry x="7400" y="3705" width="30" height="30" as="geometry" />
        </mxCell>
        <mxCell id="HgGfvKjObObi69bd0dLE-80" value="" style="ellipse;whiteSpace=wrap;html=1;aspect=fixed;strokeColor=none;fillColor=#C4C4C4;" parent="1" vertex="1">
          <mxGeometry x="7440" y="3705" width="30" height="30" as="geometry" />
        </mxCell>
        <mxCell id="HgGfvKjObObi69bd0dLE-81" value="&lt;span style=&quot;font-size: 24px;&quot;&gt;( /login_{sns} )&lt;/span&gt;" style="text;html=1;align=center;verticalAlign=middle;whiteSpace=wrap;rounded=0;" parent="1" vertex="1">
          <mxGeometry x="7350" y="3743" width="500" height="30" as="geometry" />
        </mxCell>
        <mxCell id="HgGfvKjObObi69bd0dLE-82" value="&lt;span style=&quot;font-size: 36px;&quot;&gt;SNS 로그인 페이지&lt;/span&gt;" style="text;html=1;align=center;verticalAlign=middle;whiteSpace=wrap;rounded=0;" parent="1" vertex="1">
          <mxGeometry x="7350" y="3777" width="500" height="30" as="geometry" />
        </mxCell>
        <mxCell id="HgGfvKjObObi69bd0dLE-83" value="" style="rounded=0;whiteSpace=wrap;html=1;fillColor=#EDEDED;strokeColor=none;" parent="1" vertex="1">
          <mxGeometry x="7410" y="3850" width="380" height="400" as="geometry" />
        </mxCell>
        <mxCell id="HgGfvKjObObi69bd0dLE-97" value="" style="rounded=0;whiteSpace=wrap;html=1;strokeColor=none;shadow=1;" parent="1" vertex="1">
          <mxGeometry x="7350" y="4415" width="500" height="600" as="geometry" />
        </mxCell>
        <mxCell id="HgGfvKjObObi69bd0dLE-98" value="" style="rounded=0;whiteSpace=wrap;html=1;fillColor=#808080;shadow=0;strokeColor=none;" parent="1" vertex="1">
          <mxGeometry x="7350" y="4415" width="500" height="40" as="geometry" />
        </mxCell>
        <mxCell id="HgGfvKjObObi69bd0dLE-99" value="" style="ellipse;whiteSpace=wrap;html=1;aspect=fixed;strokeColor=none;fillColor=#C4C4C4;" parent="1" vertex="1">
          <mxGeometry x="7360" y="4420" width="30" height="30" as="geometry" />
        </mxCell>
        <mxCell id="HgGfvKjObObi69bd0dLE-100" value="" style="ellipse;whiteSpace=wrap;html=1;aspect=fixed;strokeColor=none;fillColor=#C4C4C4;" parent="1" vertex="1">
          <mxGeometry x="7400" y="4420" width="30" height="30" as="geometry" />
        </mxCell>
        <mxCell id="HgGfvKjObObi69bd0dLE-101" value="" style="ellipse;whiteSpace=wrap;html=1;aspect=fixed;strokeColor=none;fillColor=#C4C4C4;" parent="1" vertex="1">
          <mxGeometry x="7440" y="4420" width="30" height="30" as="geometry" />
        </mxCell>
        <mxCell id="HgGfvKjObObi69bd0dLE-102" value="&lt;span style=&quot;font-size: 24px;&quot;&gt;( /register )&lt;/span&gt;" style="text;html=1;align=center;verticalAlign=middle;whiteSpace=wrap;rounded=0;" parent="1" vertex="1">
          <mxGeometry x="7350" y="4458" width="500" height="30" as="geometry" />
        </mxCell>
        <mxCell id="HgGfvKjObObi69bd0dLE-103" value="&lt;span style=&quot;font-size: 36px;&quot;&gt;회원가입 페이지&lt;/span&gt;" style="text;html=1;align=center;verticalAlign=middle;whiteSpace=wrap;rounded=0;" parent="1" vertex="1">
          <mxGeometry x="7350" y="4492" width="500" height="30" as="geometry" />
        </mxCell>
        <mxCell id="HgGfvKjObObi69bd0dLE-91" value="" style="shape=ext;double=1;rounded=0;whiteSpace=wrap;html=1;strokeColor=none;fillColor=#E6E6E6;" parent="1" vertex="1">
          <mxGeometry x="7440.75" y="4565" width="318.5" height="400" as="geometry" />
        </mxCell>
        <mxCell id="HgGfvKjObObi69bd0dLE-92" value="" style="rounded=0;whiteSpace=wrap;html=1;strokeColor=none;fillColor=#CCCCCC;" parent="1" vertex="1">
          <mxGeometry x="7467.25" y="4620" width="129" height="130" as="geometry" />
        </mxCell>
        <mxCell id="HgGfvKjObObi69bd0dLE-93" value="" style="shape=actor;whiteSpace=wrap;html=1;strokeColor=none;" parent="1" vertex="1">
          <mxGeometry x="7485.75" y="4640" width="92" height="110" as="geometry" />
        </mxCell>
        <mxCell id="HgGfvKjObObi69bd0dLE-94" value="" style="rounded=0;whiteSpace=wrap;html=1;strokeColor=none;fillColor=#CCCCCC;" parent="1" vertex="1">
          <mxGeometry x="7619.25" y="4620" width="120" height="35" as="geometry" />
        </mxCell>
        <mxCell id="HgGfvKjObObi69bd0dLE-95" value="" style="rounded=0;whiteSpace=wrap;html=1;strokeColor=none;fillColor=#CCCCCC;" parent="1" vertex="1">
          <mxGeometry x="7619.25" y="4667.5" width="120" height="35" as="geometry" />
        </mxCell>
        <mxCell id="HgGfvKjObObi69bd0dLE-96" value="" style="rounded=0;whiteSpace=wrap;html=1;strokeColor=none;fillColor=#CCCCCC;" parent="1" vertex="1">
          <mxGeometry x="7619.25" y="4715" width="120" height="35" as="geometry" />
        </mxCell>
        <mxCell id="HgGfvKjObObi69bd0dLE-105" value="" style="rounded=0;whiteSpace=wrap;html=1;strokeColor=none;fillColor=#CCCCCC;" parent="1" vertex="1">
          <mxGeometry x="7467.25" y="4765" width="274" height="150" as="geometry" />
        </mxCell>
        <mxCell id="HgGfvKjObObi69bd0dLE-106" value="" style="rounded=0;whiteSpace=wrap;html=1;strokeColor=none;shadow=1;" parent="1" vertex="1">
          <mxGeometry x="7354.249999999998" y="5140" width="500" height="600" as="geometry" />
        </mxCell>
        <mxCell id="HgGfvKjObObi69bd0dLE-107" value="" style="rounded=0;whiteSpace=wrap;html=1;fillColor=#808080;shadow=0;strokeColor=none;" parent="1" vertex="1">
          <mxGeometry x="7354.249999999998" y="5140" width="500" height="40" as="geometry" />
        </mxCell>
        <mxCell id="HgGfvKjObObi69bd0dLE-108" value="" style="ellipse;whiteSpace=wrap;html=1;aspect=fixed;strokeColor=none;fillColor=#C4C4C4;" parent="1" vertex="1">
          <mxGeometry x="7364.249999999998" y="5145" width="30" height="30" as="geometry" />
        </mxCell>
        <mxCell id="HgGfvKjObObi69bd0dLE-109" value="" style="ellipse;whiteSpace=wrap;html=1;aspect=fixed;strokeColor=none;fillColor=#C4C4C4;" parent="1" vertex="1">
          <mxGeometry x="7404.249999999998" y="5145" width="30" height="30" as="geometry" />
        </mxCell>
        <mxCell id="HgGfvKjObObi69bd0dLE-110" value="" style="ellipse;whiteSpace=wrap;html=1;aspect=fixed;strokeColor=none;fillColor=#C4C4C4;" parent="1" vertex="1">
          <mxGeometry x="7444.249999999998" y="5145" width="30" height="30" as="geometry" />
        </mxCell>
        <mxCell id="HgGfvKjObObi69bd0dLE-111" value="&lt;span style=&quot;font-size: 24px;&quot;&gt;( /find_account )&lt;/span&gt;" style="text;html=1;align=center;verticalAlign=middle;whiteSpace=wrap;rounded=0;" parent="1" vertex="1">
          <mxGeometry x="7354.249999999998" y="5183" width="500" height="30" as="geometry" />
        </mxCell>
        <mxCell id="HgGfvKjObObi69bd0dLE-112" value="&lt;span style=&quot;font-size: 36px;&quot;&gt;계정 찾기 인증 페이지&lt;/span&gt;" style="text;html=1;align=center;verticalAlign=middle;whiteSpace=wrap;rounded=0;" parent="1" vertex="1">
          <mxGeometry x="7354.249999999998" y="5217" width="500" height="30" as="geometry" />
        </mxCell>
        <mxCell id="HgGfvKjObObi69bd0dLE-113" value="" style="shape=ext;double=1;rounded=0;whiteSpace=wrap;html=1;strokeColor=none;fillColor=#E6E6E6;" parent="1" vertex="1">
          <mxGeometry x="7444.749999999998" y="5370" width="318.5" height="240" as="geometry" />
        </mxCell>
        <mxCell id="HgGfvKjObObi69bd0dLE-114" value="" style="rounded=0;whiteSpace=wrap;html=1;strokeColor=none;fillColor=#CCCCCC;" parent="1" vertex="1">
          <mxGeometry x="7471.249999999998" y="5425" width="129" height="130" as="geometry" />
        </mxCell>
        <mxCell id="HgGfvKjObObi69bd0dLE-115" value="" style="shape=actor;whiteSpace=wrap;html=1;strokeColor=none;" parent="1" vertex="1">
          <mxGeometry x="7489.749999999998" y="5445" width="92" height="110" as="geometry" />
        </mxCell>
        <mxCell id="HgGfvKjObObi69bd0dLE-116" value="" style="rounded=0;whiteSpace=wrap;html=1;strokeColor=none;fillColor=#CCCCCC;" parent="1" vertex="1">
          <mxGeometry x="7623.249999999998" y="5425" width="120" height="35" as="geometry" />
        </mxCell>
        <mxCell id="HgGfvKjObObi69bd0dLE-117" value="" style="rounded=0;whiteSpace=wrap;html=1;strokeColor=none;fillColor=#CCCCCC;" parent="1" vertex="1">
          <mxGeometry x="7623.249999999998" y="5472.5" width="120" height="35" as="geometry" />
        </mxCell>
        <mxCell id="HgGfvKjObObi69bd0dLE-118" value="" style="rounded=0;whiteSpace=wrap;html=1;strokeColor=none;fillColor=#CCCCCC;" parent="1" vertex="1">
          <mxGeometry x="7623.249999999998" y="5520" width="120" height="35" as="geometry" />
        </mxCell>
        <mxCell id="HgGfvKjObObi69bd0dLE-119" value="" style="rounded=0;whiteSpace=wrap;html=1;strokeColor=none;shadow=1;" parent="1" vertex="1">
          <mxGeometry x="7979.999999999999" y="5140" width="500" height="600" as="geometry" />
        </mxCell>
        <mxCell id="HgGfvKjObObi69bd0dLE-120" value="" style="rounded=0;whiteSpace=wrap;html=1;fillColor=#808080;shadow=0;strokeColor=none;" parent="1" vertex="1">
          <mxGeometry x="7979.999999999999" y="5140" width="500" height="40" as="geometry" />
        </mxCell>
        <mxCell id="HgGfvKjObObi69bd0dLE-121" value="" style="ellipse;whiteSpace=wrap;html=1;aspect=fixed;strokeColor=none;fillColor=#C4C4C4;" parent="1" vertex="1">
          <mxGeometry x="7989.999999999999" y="5145" width="30" height="30" as="geometry" />
        </mxCell>
        <mxCell id="HgGfvKjObObi69bd0dLE-122" value="" style="ellipse;whiteSpace=wrap;html=1;aspect=fixed;strokeColor=none;fillColor=#C4C4C4;" parent="1" vertex="1">
          <mxGeometry x="8029.999999999999" y="5145" width="30" height="30" as="geometry" />
        </mxCell>
        <mxCell id="HgGfvKjObObi69bd0dLE-123" value="" style="ellipse;whiteSpace=wrap;html=1;aspect=fixed;strokeColor=none;fillColor=#C4C4C4;" parent="1" vertex="1">
          <mxGeometry x="8069.999999999999" y="5145" width="30" height="30" as="geometry" />
        </mxCell>
        <mxCell id="HgGfvKjObObi69bd0dLE-124" value="&lt;span style=&quot;font-size: 24px;&quot;&gt;( /reset_account )&lt;/span&gt;" style="text;html=1;align=center;verticalAlign=middle;whiteSpace=wrap;rounded=0;" parent="1" vertex="1">
          <mxGeometry x="7979.999999999999" y="5183" width="500" height="30" as="geometry" />
        </mxCell>
        <mxCell id="HgGfvKjObObi69bd0dLE-125" value="&lt;span style=&quot;font-size: 36px;&quot;&gt;비밀번호 초기화&lt;/span&gt;" style="text;html=1;align=center;verticalAlign=middle;whiteSpace=wrap;rounded=0;" parent="1" vertex="1">
          <mxGeometry x="7979.999999999999" y="5217" width="500" height="30" as="geometry" />
        </mxCell>
        <mxCell id="HgGfvKjObObi69bd0dLE-126" value="" style="shape=ext;double=1;rounded=0;whiteSpace=wrap;html=1;strokeColor=none;fillColor=#E6E6E6;" parent="1" vertex="1">
          <mxGeometry x="8070.499999999999" y="5370" width="318.5" height="240" as="geometry" />
        </mxCell>
        <mxCell id="HgGfvKjObObi69bd0dLE-127" value="" style="rounded=0;whiteSpace=wrap;html=1;strokeColor=none;fillColor=#CCCCCC;" parent="1" vertex="1">
          <mxGeometry x="8096.999999999999" y="5425" width="129" height="130" as="geometry" />
        </mxCell>
        <mxCell id="HgGfvKjObObi69bd0dLE-128" value="" style="shape=actor;whiteSpace=wrap;html=1;strokeColor=none;" parent="1" vertex="1">
          <mxGeometry x="8115.499999999999" y="5445" width="92" height="110" as="geometry" />
        </mxCell>
        <mxCell id="HgGfvKjObObi69bd0dLE-129" value="" style="rounded=0;whiteSpace=wrap;html=1;strokeColor=none;fillColor=#CCCCCC;" parent="1" vertex="1">
          <mxGeometry x="8249" y="5425" width="120" height="35" as="geometry" />
        </mxCell>
        <mxCell id="HgGfvKjObObi69bd0dLE-130" value="" style="rounded=0;whiteSpace=wrap;html=1;strokeColor=none;fillColor=#CCCCCC;" parent="1" vertex="1">
          <mxGeometry x="8249" y="5472.5" width="120" height="35" as="geometry" />
        </mxCell>
        <mxCell id="HgGfvKjObObi69bd0dLE-131" value="" style="rounded=0;whiteSpace=wrap;html=1;strokeColor=none;fillColor=#CCCCCC;" parent="1" vertex="1">
          <mxGeometry x="8249" y="5520" width="120" height="35" as="geometry" />
        </mxCell>
        <mxCell id="HgGfvKjObObi69bd0dLE-232" value="" style="rounded=0;whiteSpace=wrap;html=1;strokeColor=none;shadow=1;" parent="1" vertex="1">
          <mxGeometry x="6120" y="2351.25" width="500" height="600" as="geometry" />
        </mxCell>
        <mxCell id="HgGfvKjObObi69bd0dLE-233" value="" style="rounded=0;whiteSpace=wrap;html=1;fillColor=#808080;shadow=0;strokeColor=none;" parent="1" vertex="1">
          <mxGeometry x="6120" y="2351.25" width="500" height="40" as="geometry" />
        </mxCell>
        <mxCell id="HgGfvKjObObi69bd0dLE-234" value="" style="ellipse;whiteSpace=wrap;html=1;aspect=fixed;strokeColor=none;fillColor=#C4C4C4;" parent="1" vertex="1">
          <mxGeometry x="6130" y="2356.25" width="30" height="30" as="geometry" />
        </mxCell>
        <mxCell id="HgGfvKjObObi69bd0dLE-235" value="" style="ellipse;whiteSpace=wrap;html=1;aspect=fixed;strokeColor=none;fillColor=#C4C4C4;" parent="1" vertex="1">
          <mxGeometry x="6170" y="2356.25" width="30" height="30" as="geometry" />
        </mxCell>
        <mxCell id="HgGfvKjObObi69bd0dLE-236" value="" style="ellipse;whiteSpace=wrap;html=1;aspect=fixed;strokeColor=none;fillColor=#C4C4C4;" parent="1" vertex="1">
          <mxGeometry x="6210" y="2356.25" width="30" height="30" as="geometry" />
        </mxCell>
        <mxCell id="HgGfvKjObObi69bd0dLE-237" value="&lt;font style=&quot;font-size: 24px;&quot;&gt;( /contact&lt;/font&gt;&lt;span style=&quot;color: light-dark(rgb(0, 0, 0), rgb(255, 255, 255)); background-color: transparent; font-size: 24px;&quot;&gt;&amp;nbsp;)&lt;/span&gt;" style="text;html=1;align=center;verticalAlign=middle;whiteSpace=wrap;rounded=0;" parent="1" vertex="1">
          <mxGeometry x="6120" y="2394.25" width="500" height="30" as="geometry" />
        </mxCell>
        <mxCell id="HgGfvKjObObi69bd0dLE-238" value="&lt;span style=&quot;font-size: 36px;&quot;&gt;연락처 페이지&lt;/span&gt;" style="text;html=1;align=center;verticalAlign=middle;whiteSpace=wrap;rounded=0;" parent="1" vertex="1">
          <mxGeometry x="6120" y="2428.25" width="500" height="30" as="geometry" />
        </mxCell>
        <mxCell id="HgGfvKjObObi69bd0dLE-239" value="" style="shape=ext;double=1;rounded=0;whiteSpace=wrap;html=1;strokeColor=none;fillColor=#CCCCCC;" parent="1" vertex="1">
          <mxGeometry x="6180" y="2501.25" width="380" height="60" as="geometry" />
        </mxCell>
        <mxCell id="HgGfvKjObObi69bd0dLE-240" value="" style="shape=ext;double=1;rounded=0;whiteSpace=wrap;html=1;strokeColor=none;fillColor=#CCCCCC;" parent="1" vertex="1">
          <mxGeometry x="6180" y="2588.75" width="380" height="312.5" as="geometry" />
        </mxCell>
        <mxCell id="HgGfvKjObObi69bd0dLE-242" value="" style="rounded=0;whiteSpace=wrap;html=1;strokeColor=none;shadow=1;" parent="1" vertex="1">
          <mxGeometry x="6750.75" y="2351.25" width="500" height="600" as="geometry" />
        </mxCell>
        <mxCell id="HgGfvKjObObi69bd0dLE-243" value="" style="rounded=0;whiteSpace=wrap;html=1;fillColor=#808080;shadow=0;strokeColor=none;" parent="1" vertex="1">
          <mxGeometry x="6750.75" y="2351.25" width="500" height="40" as="geometry" />
        </mxCell>
        <mxCell id="HgGfvKjObObi69bd0dLE-244" value="" style="ellipse;whiteSpace=wrap;html=1;aspect=fixed;strokeColor=none;fillColor=#C4C4C4;" parent="1" vertex="1">
          <mxGeometry x="6760.75" y="2356.25" width="30" height="30" as="geometry" />
        </mxCell>
        <mxCell id="HgGfvKjObObi69bd0dLE-245" value="" style="ellipse;whiteSpace=wrap;html=1;aspect=fixed;strokeColor=none;fillColor=#C4C4C4;" parent="1" vertex="1">
          <mxGeometry x="6800.75" y="2356.25" width="30" height="30" as="geometry" />
        </mxCell>
        <mxCell id="HgGfvKjObObi69bd0dLE-246" value="" style="ellipse;whiteSpace=wrap;html=1;aspect=fixed;strokeColor=none;fillColor=#C4C4C4;" parent="1" vertex="1">
          <mxGeometry x="6840.75" y="2356.25" width="30" height="30" as="geometry" />
        </mxCell>
        <mxCell id="HgGfvKjObObi69bd0dLE-247" value="&lt;font style=&quot;font-size: 24px;&quot;&gt;( /terms&lt;/font&gt;&lt;span style=&quot;color: light-dark(rgb(0, 0, 0), rgb(255, 255, 255)); background-color: transparent; font-size: 24px;&quot;&gt;&amp;nbsp;)&lt;/span&gt;" style="text;html=1;align=center;verticalAlign=middle;whiteSpace=wrap;rounded=0;" parent="1" vertex="1">
          <mxGeometry x="6750.75" y="2394.25" width="500" height="30" as="geometry" />
        </mxCell>
        <mxCell id="HgGfvKjObObi69bd0dLE-248" value="&lt;span style=&quot;font-size: 36px;&quot;&gt;이용약관 페이지&lt;/span&gt;" style="text;html=1;align=center;verticalAlign=middle;whiteSpace=wrap;rounded=0;" parent="1" vertex="1">
          <mxGeometry x="6750.75" y="2428.25" width="500" height="30" as="geometry" />
        </mxCell>
        <mxCell id="HgGfvKjObObi69bd0dLE-249" value="" style="shape=ext;double=1;rounded=0;whiteSpace=wrap;html=1;strokeColor=none;fillColor=#CCCCCC;" parent="1" vertex="1">
          <mxGeometry x="6810.75" y="2501.25" width="380" height="60" as="geometry" />
        </mxCell>
        <mxCell id="HgGfvKjObObi69bd0dLE-250" value="" style="shape=ext;double=1;rounded=0;whiteSpace=wrap;html=1;strokeColor=none;fillColor=#CCCCCC;" parent="1" vertex="1">
          <mxGeometry x="6810.75" y="2588.75" width="380" height="312.5" as="geometry" />
        </mxCell>
        <mxCell id="HgGfvKjObObi69bd0dLE-254" value="" style="rounded=0;whiteSpace=wrap;html=1;strokeColor=none;shadow=1;" parent="1" vertex="1">
          <mxGeometry x="4337" y="5820" width="500" height="600" as="geometry" />
        </mxCell>
        <mxCell id="HgGfvKjObObi69bd0dLE-255" value="" style="rounded=0;whiteSpace=wrap;html=1;fillColor=#808080;shadow=0;strokeColor=none;" parent="1" vertex="1">
          <mxGeometry x="4337" y="5820" width="500" height="40" as="geometry" />
        </mxCell>
        <mxCell id="HgGfvKjObObi69bd0dLE-256" value="" style="ellipse;whiteSpace=wrap;html=1;aspect=fixed;strokeColor=none;fillColor=#C4C4C4;" parent="1" vertex="1">
          <mxGeometry x="4347" y="5825" width="30" height="30" as="geometry" />
        </mxCell>
        <mxCell id="HgGfvKjObObi69bd0dLE-257" value="" style="ellipse;whiteSpace=wrap;html=1;aspect=fixed;strokeColor=none;fillColor=#C4C4C4;" parent="1" vertex="1">
          <mxGeometry x="4387" y="5825" width="30" height="30" as="geometry" />
        </mxCell>
        <mxCell id="HgGfvKjObObi69bd0dLE-258" value="" style="ellipse;whiteSpace=wrap;html=1;aspect=fixed;strokeColor=none;fillColor=#C4C4C4;" parent="1" vertex="1">
          <mxGeometry x="4427" y="5825" width="30" height="30" as="geometry" />
        </mxCell>
        <mxCell id="HgGfvKjObObi69bd0dLE-259" value="&lt;span style=&quot;font-size: 24px;&quot;&gt;( /order/histories )&lt;/span&gt;" style="text;html=1;align=center;verticalAlign=middle;whiteSpace=wrap;rounded=0;" parent="1" vertex="1">
          <mxGeometry x="4337" y="5863" width="500" height="30" as="geometry" />
        </mxCell>
        <mxCell id="HgGfvKjObObi69bd0dLE-260" value="&lt;span style=&quot;font-size: 36px;&quot;&gt;주문 기록 페이지&lt;/span&gt;" style="text;html=1;align=center;verticalAlign=middle;whiteSpace=wrap;rounded=0;" parent="1" vertex="1">
          <mxGeometry x="4337" y="5897" width="500" height="30" as="geometry" />
        </mxCell>
        <mxCell id="HgGfvKjObObi69bd0dLE-261" value="" style="shape=ext;double=1;rounded=0;whiteSpace=wrap;html=1;strokeColor=none;fillColor=#CCCCCC;" parent="1" vertex="1">
          <mxGeometry x="4397" y="6290" width="380" height="80" as="geometry" />
        </mxCell>
        <mxCell id="HgGfvKjObObi69bd0dLE-262" value="" style="shape=ext;double=1;rounded=0;whiteSpace=wrap;html=1;strokeColor=none;fillColor=#CCCCCC;" parent="1" vertex="1">
          <mxGeometry x="4397" y="6180" width="380" height="80" as="geometry" />
        </mxCell>
        <mxCell id="HgGfvKjObObi69bd0dLE-263" value="" style="shape=ext;double=1;rounded=0;whiteSpace=wrap;html=1;strokeColor=none;fillColor=#CCCCCC;" parent="1" vertex="1">
          <mxGeometry x="4396" y="6070" width="380" height="80" as="geometry" />
        </mxCell>
        <mxCell id="HgGfvKjObObi69bd0dLE-264" value="" style="shape=ext;double=1;rounded=0;whiteSpace=wrap;html=1;strokeColor=none;fillColor=#CCCCCC;" parent="1" vertex="1">
          <mxGeometry x="4396" y="5967" width="380" height="80" as="geometry" />
        </mxCell>
        <mxCell id="HgGfvKjObObi69bd0dLE-265" value="" style="rounded=0;whiteSpace=wrap;html=1;strokeColor=none;shadow=1;" parent="1" vertex="1">
          <mxGeometry x="3660" y="5825" width="500" height="600" as="geometry" />
        </mxCell>
        <mxCell id="HgGfvKjObObi69bd0dLE-266" value="" style="rounded=0;whiteSpace=wrap;html=1;fillColor=#808080;shadow=0;strokeColor=none;" parent="1" vertex="1">
          <mxGeometry x="3660" y="5825" width="500" height="40" as="geometry" />
        </mxCell>
        <mxCell id="HgGfvKjObObi69bd0dLE-267" value="" style="ellipse;whiteSpace=wrap;html=1;aspect=fixed;strokeColor=none;fillColor=#C4C4C4;" parent="1" vertex="1">
          <mxGeometry x="3670" y="5830" width="30" height="30" as="geometry" />
        </mxCell>
        <mxCell id="HgGfvKjObObi69bd0dLE-268" value="" style="ellipse;whiteSpace=wrap;html=1;aspect=fixed;strokeColor=none;fillColor=#C4C4C4;" parent="1" vertex="1">
          <mxGeometry x="3710" y="5830" width="30" height="30" as="geometry" />
        </mxCell>
        <mxCell id="HgGfvKjObObi69bd0dLE-269" value="" style="ellipse;whiteSpace=wrap;html=1;aspect=fixed;strokeColor=none;fillColor=#C4C4C4;" parent="1" vertex="1">
          <mxGeometry x="3750" y="5830" width="30" height="30" as="geometry" />
        </mxCell>
        <mxCell id="HgGfvKjObObi69bd0dLE-270" value="&lt;span style=&quot;font-size: 24px;&quot;&gt;( /order/history )&lt;/span&gt;" style="text;html=1;align=center;verticalAlign=middle;whiteSpace=wrap;rounded=0;" parent="1" vertex="1">
          <mxGeometry x="3660" y="5868" width="500" height="30" as="geometry" />
        </mxCell>
        <mxCell id="HgGfvKjObObi69bd0dLE-271" value="&lt;span style=&quot;font-size: 36px;&quot;&gt;주문 기록 정보 페이지&lt;/span&gt;" style="text;html=1;align=center;verticalAlign=middle;whiteSpace=wrap;rounded=0;" parent="1" vertex="1">
          <mxGeometry x="3660" y="5902" width="500" height="30" as="geometry" />
        </mxCell>
        <mxCell id="HgGfvKjObObi69bd0dLE-272" value="" style="shape=ext;double=1;rounded=0;whiteSpace=wrap;html=1;strokeColor=none;fillColor=#CCCCCC;" parent="1" vertex="1">
          <mxGeometry x="3720" y="5975" width="380" height="60" as="geometry" />
        </mxCell>
        <mxCell id="HgGfvKjObObi69bd0dLE-273" value="" style="shape=ext;double=1;rounded=0;whiteSpace=wrap;html=1;strokeColor=none;fillColor=#CCCCCC;" parent="1" vertex="1">
          <mxGeometry x="3720" y="6062.5" width="380" height="312.5" as="geometry" />
        </mxCell>
        <mxCell id="HgGfvKjObObi69bd0dLE-289" value="" style="rounded=0;whiteSpace=wrap;html=1;strokeColor=none;shadow=1;" parent="1" vertex="1">
          <mxGeometry x="4327" y="6550" width="500" height="600" as="geometry" />
        </mxCell>
        <mxCell id="HgGfvKjObObi69bd0dLE-290" value="" style="rounded=0;whiteSpace=wrap;html=1;fillColor=#808080;shadow=0;strokeColor=none;" parent="1" vertex="1">
          <mxGeometry x="4327" y="6550" width="500" height="40" as="geometry" />
        </mxCell>
        <mxCell id="HgGfvKjObObi69bd0dLE-291" value="" style="ellipse;whiteSpace=wrap;html=1;aspect=fixed;strokeColor=none;fillColor=#C4C4C4;" parent="1" vertex="1">
          <mxGeometry x="4337" y="6555" width="30" height="30" as="geometry" />
        </mxCell>
        <mxCell id="HgGfvKjObObi69bd0dLE-292" value="" style="ellipse;whiteSpace=wrap;html=1;aspect=fixed;strokeColor=none;fillColor=#C4C4C4;" parent="1" vertex="1">
          <mxGeometry x="4377" y="6555" width="30" height="30" as="geometry" />
        </mxCell>
        <mxCell id="HgGfvKjObObi69bd0dLE-293" value="" style="ellipse;whiteSpace=wrap;html=1;aspect=fixed;strokeColor=none;fillColor=#C4C4C4;" parent="1" vertex="1">
          <mxGeometry x="4417" y="6555" width="30" height="30" as="geometry" />
        </mxCell>
        <mxCell id="HgGfvKjObObi69bd0dLE-294" value="&lt;span style=&quot;font-size: 24px;&quot;&gt;( /order/request )&lt;/span&gt;" style="text;html=1;align=center;verticalAlign=middle;whiteSpace=wrap;rounded=0;" parent="1" vertex="1">
          <mxGeometry x="4327" y="6593" width="500" height="30" as="geometry" />
        </mxCell>
        <mxCell id="HgGfvKjObObi69bd0dLE-295" value="&lt;span style=&quot;font-size: 36px;&quot;&gt;주문 요청 페이지&lt;/span&gt;" style="text;html=1;align=center;verticalAlign=middle;whiteSpace=wrap;rounded=0;" parent="1" vertex="1">
          <mxGeometry x="4327" y="6627" width="500" height="30" as="geometry" />
        </mxCell>
        <mxCell id="HgGfvKjObObi69bd0dLE-296" value="" style="shape=ext;double=1;rounded=0;whiteSpace=wrap;html=1;strokeColor=none;fillColor=#E6E6E6;" parent="1" vertex="1">
          <mxGeometry x="4417.75" y="6700" width="318.5" height="400" as="geometry" />
        </mxCell>
        <mxCell id="HgGfvKjObObi69bd0dLE-297" value="" style="rounded=0;whiteSpace=wrap;html=1;strokeColor=none;fillColor=#CCCCCC;" parent="1" vertex="1">
          <mxGeometry x="4444.25" y="6755" width="129" height="130" as="geometry" />
        </mxCell>
        <mxCell id="HgGfvKjObObi69bd0dLE-299" value="" style="rounded=0;whiteSpace=wrap;html=1;strokeColor=none;fillColor=#CCCCCC;" parent="1" vertex="1">
          <mxGeometry x="4596.25" y="6755" width="120" height="35" as="geometry" />
        </mxCell>
        <mxCell id="HgGfvKjObObi69bd0dLE-300" value="" style="rounded=0;whiteSpace=wrap;html=1;strokeColor=none;fillColor=#CCCCCC;" parent="1" vertex="1">
          <mxGeometry x="4596.25" y="6802.5" width="120" height="35" as="geometry" />
        </mxCell>
        <mxCell id="HgGfvKjObObi69bd0dLE-301" value="" style="rounded=0;whiteSpace=wrap;html=1;strokeColor=none;fillColor=#CCCCCC;" parent="1" vertex="1">
          <mxGeometry x="4596.25" y="6850" width="120" height="35" as="geometry" />
        </mxCell>
        <mxCell id="HgGfvKjObObi69bd0dLE-302" value="" style="rounded=0;whiteSpace=wrap;html=1;strokeColor=none;fillColor=#CCCCCC;" parent="1" vertex="1">
          <mxGeometry x="4444.25" y="6900" width="274" height="90" as="geometry" />
        </mxCell>
        <mxCell id="HgGfvKjObObi69bd0dLE-303" value="" style="rounded=0;whiteSpace=wrap;html=1;strokeColor=none;fillColor=#CCCCCC;" parent="1" vertex="1">
          <mxGeometry x="4444.25" y="7005" width="274" height="45" as="geometry" />
        </mxCell>
        <mxCell id="HgGfvKjObObi69bd0dLE-304" value="" style="rounded=0;whiteSpace=wrap;html=1;strokeColor=none;shadow=1;" parent="1" vertex="1">
          <mxGeometry x="2800" y="4872.5" width="500" height="600" as="geometry" />
        </mxCell>
        <mxCell id="HgGfvKjObObi69bd0dLE-305" value="" style="rounded=0;whiteSpace=wrap;html=1;fillColor=#808080;shadow=0;strokeColor=none;" parent="1" vertex="1">
          <mxGeometry x="2800" y="4872.5" width="500" height="40" as="geometry" />
        </mxCell>
        <mxCell id="HgGfvKjObObi69bd0dLE-306" value="" style="ellipse;whiteSpace=wrap;html=1;aspect=fixed;strokeColor=none;fillColor=#C4C4C4;" parent="1" vertex="1">
          <mxGeometry x="2810" y="4877.5" width="30" height="30" as="geometry" />
        </mxCell>
        <mxCell id="HgGfvKjObObi69bd0dLE-307" value="" style="ellipse;whiteSpace=wrap;html=1;aspect=fixed;strokeColor=none;fillColor=#C4C4C4;" parent="1" vertex="1">
          <mxGeometry x="2850" y="4877.5" width="30" height="30" as="geometry" />
        </mxCell>
        <mxCell id="HgGfvKjObObi69bd0dLE-308" value="" style="ellipse;whiteSpace=wrap;html=1;aspect=fixed;strokeColor=none;fillColor=#C4C4C4;" parent="1" vertex="1">
          <mxGeometry x="2890" y="4877.5" width="30" height="30" as="geometry" />
        </mxCell>
        <mxCell id="HgGfvKjObObi69bd0dLE-309" value="&lt;span style=&quot;font-size: 24px;&quot;&gt;( /board )&lt;/span&gt;" style="text;html=1;align=center;verticalAlign=middle;whiteSpace=wrap;rounded=0;" parent="1" vertex="1">
          <mxGeometry x="2800" y="4915.5" width="500" height="30" as="geometry" />
        </mxCell>
        <mxCell id="HgGfvKjObObi69bd0dLE-310" value="&lt;span style=&quot;font-size: 36px;&quot;&gt;게시판 페이지&lt;/span&gt;" style="text;html=1;align=center;verticalAlign=middle;whiteSpace=wrap;rounded=0;" parent="1" vertex="1">
          <mxGeometry x="2800" y="4949.5" width="500" height="30" as="geometry" />
        </mxCell>
        <mxCell id="HgGfvKjObObi69bd0dLE-311" value="" style="shape=ext;double=1;rounded=0;whiteSpace=wrap;html=1;strokeColor=none;fillColor=#CCCCCC;" parent="1" vertex="1">
          <mxGeometry x="2860" y="5342.5" width="380" height="80" as="geometry" />
        </mxCell>
        <mxCell id="HgGfvKjObObi69bd0dLE-312" value="" style="shape=ext;double=1;rounded=0;whiteSpace=wrap;html=1;strokeColor=none;fillColor=#CCCCCC;" parent="1" vertex="1">
          <mxGeometry x="2860" y="5232.5" width="380" height="80" as="geometry" />
        </mxCell>
        <mxCell id="HgGfvKjObObi69bd0dLE-313" value="" style="shape=ext;double=1;rounded=0;whiteSpace=wrap;html=1;strokeColor=none;fillColor=#CCCCCC;" parent="1" vertex="1">
          <mxGeometry x="2859" y="5122.5" width="380" height="80" as="geometry" />
        </mxCell>
        <mxCell id="HgGfvKjObObi69bd0dLE-314" value="" style="shape=ext;double=1;rounded=0;whiteSpace=wrap;html=1;strokeColor=none;fillColor=#CCCCCC;" parent="1" vertex="1">
          <mxGeometry x="2859" y="5019.5" width="380" height="80" as="geometry" />
        </mxCell>
        <mxCell id="HgGfvKjObObi69bd0dLE-315" value="" style="rounded=0;whiteSpace=wrap;html=1;strokeColor=none;shadow=1;" parent="1" vertex="1">
          <mxGeometry x="2170" y="4872.5" width="500" height="600" as="geometry" />
        </mxCell>
        <mxCell id="HgGfvKjObObi69bd0dLE-316" value="" style="rounded=0;whiteSpace=wrap;html=1;fillColor=#808080;shadow=0;strokeColor=none;" parent="1" vertex="1">
          <mxGeometry x="2170" y="4872.5" width="500" height="40" as="geometry" />
        </mxCell>
        <mxCell id="HgGfvKjObObi69bd0dLE-317" value="" style="ellipse;whiteSpace=wrap;html=1;aspect=fixed;strokeColor=none;fillColor=#C4C4C4;" parent="1" vertex="1">
          <mxGeometry x="2180" y="4877.5" width="30" height="30" as="geometry" />
        </mxCell>
        <mxCell id="HgGfvKjObObi69bd0dLE-318" value="" style="ellipse;whiteSpace=wrap;html=1;aspect=fixed;strokeColor=none;fillColor=#C4C4C4;" parent="1" vertex="1">
          <mxGeometry x="2220" y="4877.5" width="30" height="30" as="geometry" />
        </mxCell>
        <mxCell id="HgGfvKjObObi69bd0dLE-319" value="" style="ellipse;whiteSpace=wrap;html=1;aspect=fixed;strokeColor=none;fillColor=#C4C4C4;" parent="1" vertex="1">
          <mxGeometry x="2260" y="4877.5" width="30" height="30" as="geometry" />
        </mxCell>
        <mxCell id="HgGfvKjObObi69bd0dLE-320" value="&lt;span style=&quot;font-size: 24px;&quot;&gt;( /board/post )&lt;/span&gt;" style="text;html=1;align=center;verticalAlign=middle;whiteSpace=wrap;rounded=0;" parent="1" vertex="1">
          <mxGeometry x="2170" y="4915.5" width="500" height="30" as="geometry" />
        </mxCell>
        <mxCell id="HgGfvKjObObi69bd0dLE-321" value="&lt;span style=&quot;font-size: 36px;&quot;&gt;게시글 페이지&lt;/span&gt;" style="text;html=1;align=center;verticalAlign=middle;whiteSpace=wrap;rounded=0;" parent="1" vertex="1">
          <mxGeometry x="2170" y="4949.5" width="500" height="30" as="geometry" />
        </mxCell>
        <mxCell id="HgGfvKjObObi69bd0dLE-322" value="" style="shape=ext;double=1;rounded=0;whiteSpace=wrap;html=1;strokeColor=none;fillColor=#CCCCCC;" parent="1" vertex="1">
          <mxGeometry x="2230" y="5022.5" width="380" height="60" as="geometry" />
        </mxCell>
        <mxCell id="HgGfvKjObObi69bd0dLE-323" value="" style="shape=ext;double=1;rounded=0;whiteSpace=wrap;html=1;strokeColor=none;fillColor=#CCCCCC;" parent="1" vertex="1">
          <mxGeometry x="2230" y="5110" width="380" height="312.5" as="geometry" />
        </mxCell>
        <mxCell id="HgGfvKjObObi69bd0dLE-325" value="" style="rounded=0;whiteSpace=wrap;html=1;strokeColor=none;shadow=1;" parent="1" vertex="1">
          <mxGeometry x="2800" y="4152.5" width="500" height="600" as="geometry" />
        </mxCell>
        <mxCell id="HgGfvKjObObi69bd0dLE-326" value="" style="rounded=0;whiteSpace=wrap;html=1;fillColor=#808080;shadow=0;strokeColor=none;" parent="1" vertex="1">
          <mxGeometry x="2800" y="4152.5" width="500" height="40" as="geometry" />
        </mxCell>
        <mxCell id="HgGfvKjObObi69bd0dLE-327" value="" style="ellipse;whiteSpace=wrap;html=1;aspect=fixed;strokeColor=none;fillColor=#C4C4C4;" parent="1" vertex="1">
          <mxGeometry x="2810" y="4157.5" width="30" height="30" as="geometry" />
        </mxCell>
        <mxCell id="HgGfvKjObObi69bd0dLE-328" value="" style="ellipse;whiteSpace=wrap;html=1;aspect=fixed;strokeColor=none;fillColor=#C4C4C4;" parent="1" vertex="1">
          <mxGeometry x="2850" y="4157.5" width="30" height="30" as="geometry" />
        </mxCell>
        <mxCell id="HgGfvKjObObi69bd0dLE-329" value="" style="ellipse;whiteSpace=wrap;html=1;aspect=fixed;strokeColor=none;fillColor=#C4C4C4;" parent="1" vertex="1">
          <mxGeometry x="2890" y="4157.5" width="30" height="30" as="geometry" />
        </mxCell>
        <mxCell id="HgGfvKjObObi69bd0dLE-330" value="&lt;span style=&quot;font-size: 24px;&quot;&gt;( /board/write_post )&lt;/span&gt;" style="text;html=1;align=center;verticalAlign=middle;whiteSpace=wrap;rounded=0;" parent="1" vertex="1">
          <mxGeometry x="2800" y="4195.5" width="500" height="30" as="geometry" />
        </mxCell>
        <mxCell id="HgGfvKjObObi69bd0dLE-331" value="&lt;span style=&quot;font-size: 36px;&quot;&gt;게시글 작성 페이지&lt;/span&gt;" style="text;html=1;align=center;verticalAlign=middle;whiteSpace=wrap;rounded=0;" parent="1" vertex="1">
          <mxGeometry x="2800" y="4229.5" width="500" height="30" as="geometry" />
        </mxCell>
        <mxCell id="HgGfvKjObObi69bd0dLE-332" value="" style="shape=ext;double=1;rounded=0;whiteSpace=wrap;html=1;strokeColor=none;fillColor=#E6E6E6;" parent="1" vertex="1">
          <mxGeometry x="2890.75" y="4302.5" width="318.5" height="400" as="geometry" />
        </mxCell>
        <mxCell id="HgGfvKjObObi69bd0dLE-338" value="" style="rounded=0;whiteSpace=wrap;html=1;strokeColor=none;fillColor=#CCCCCC;" parent="1" vertex="1">
          <mxGeometry x="2913" y="4432.5" width="274" height="230" as="geometry" />
        </mxCell>
        <mxCell id="HgGfvKjObObi69bd0dLE-340" value="" style="rounded=0;whiteSpace=wrap;html=1;strokeColor=none;fillColor=#CCCCCC;" parent="1" vertex="1">
          <mxGeometry x="2913" y="4340" width="274" height="62.5" as="geometry" />
        </mxCell>
        <mxCell id="HgGfvKjObObi69bd0dLE-341" value="" style="rounded=0;whiteSpace=wrap;html=1;strokeColor=none;shadow=1;" parent="1" vertex="1">
          <mxGeometry x="1550" y="4872.5" width="500" height="600" as="geometry" />
        </mxCell>
        <mxCell id="HgGfvKjObObi69bd0dLE-342" value="" style="rounded=0;whiteSpace=wrap;html=1;fillColor=#808080;shadow=0;strokeColor=none;" parent="1" vertex="1">
          <mxGeometry x="1550" y="4872.5" width="500" height="40" as="geometry" />
        </mxCell>
        <mxCell id="HgGfvKjObObi69bd0dLE-343" value="" style="ellipse;whiteSpace=wrap;html=1;aspect=fixed;strokeColor=none;fillColor=#C4C4C4;" parent="1" vertex="1">
          <mxGeometry x="1560" y="4877.5" width="30" height="30" as="geometry" />
        </mxCell>
        <mxCell id="HgGfvKjObObi69bd0dLE-344" value="" style="ellipse;whiteSpace=wrap;html=1;aspect=fixed;strokeColor=none;fillColor=#C4C4C4;" parent="1" vertex="1">
          <mxGeometry x="1600" y="4877.5" width="30" height="30" as="geometry" />
        </mxCell>
        <mxCell id="HgGfvKjObObi69bd0dLE-345" value="" style="ellipse;whiteSpace=wrap;html=1;aspect=fixed;strokeColor=none;fillColor=#C4C4C4;" parent="1" vertex="1">
          <mxGeometry x="1640" y="4877.5" width="30" height="30" as="geometry" />
        </mxCell>
        <mxCell id="HgGfvKjObObi69bd0dLE-346" value="&lt;span style=&quot;font-size: 24px;&quot;&gt;( /board/rewrite_post )&lt;/span&gt;" style="text;html=1;align=center;verticalAlign=middle;whiteSpace=wrap;rounded=0;" parent="1" vertex="1">
          <mxGeometry x="1550" y="4915.5" width="500" height="30" as="geometry" />
        </mxCell>
        <mxCell id="HgGfvKjObObi69bd0dLE-347" value="&lt;span style=&quot;font-size: 36px;&quot;&gt;게시글 수정 페이지&lt;/span&gt;" style="text;html=1;align=center;verticalAlign=middle;whiteSpace=wrap;rounded=0;" parent="1" vertex="1">
          <mxGeometry x="1550" y="4949.5" width="500" height="30" as="geometry" />
        </mxCell>
        <mxCell id="HgGfvKjObObi69bd0dLE-348" value="" style="shape=ext;double=1;rounded=0;whiteSpace=wrap;html=1;strokeColor=none;fillColor=#E6E6E6;" parent="1" vertex="1">
          <mxGeometry x="1640.75" y="5022.5" width="318.5" height="400" as="geometry" />
        </mxCell>
        <mxCell id="HgGfvKjObObi69bd0dLE-349" value="" style="rounded=0;whiteSpace=wrap;html=1;strokeColor=none;fillColor=#CCCCCC;" parent="1" vertex="1">
          <mxGeometry x="1663" y="5152.5" width="274" height="230" as="geometry" />
        </mxCell>
        <mxCell id="HgGfvKjObObi69bd0dLE-350" value="" style="rounded=0;whiteSpace=wrap;html=1;strokeColor=none;fillColor=#CCCCCC;" parent="1" vertex="1">
          <mxGeometry x="1663" y="5060" width="274" height="62.5" as="geometry" />
        </mxCell>
        <mxCell id="HgGfvKjObObi69bd0dLE-351" value="" style="rounded=0;whiteSpace=wrap;html=1;strokeColor=none;shadow=1;" parent="1" vertex="1">
          <mxGeometry x="5000.25" y="5100" width="500" height="600" as="geometry" />
        </mxCell>
        <mxCell id="HgGfvKjObObi69bd0dLE-352" value="" style="rounded=0;whiteSpace=wrap;html=1;fillColor=#808080;shadow=0;strokeColor=none;" parent="1" vertex="1">
          <mxGeometry x="5000.25" y="5100" width="500" height="40" as="geometry" />
        </mxCell>
        <mxCell id="HgGfvKjObObi69bd0dLE-353" value="" style="ellipse;whiteSpace=wrap;html=1;aspect=fixed;strokeColor=none;fillColor=#C4C4C4;" parent="1" vertex="1">
          <mxGeometry x="5010.25" y="5105" width="30" height="30" as="geometry" />
        </mxCell>
        <mxCell id="HgGfvKjObObi69bd0dLE-354" value="" style="ellipse;whiteSpace=wrap;html=1;aspect=fixed;strokeColor=none;fillColor=#C4C4C4;" parent="1" vertex="1">
          <mxGeometry x="5050.25" y="5105" width="30" height="30" as="geometry" />
        </mxCell>
        <mxCell id="HgGfvKjObObi69bd0dLE-355" value="" style="ellipse;whiteSpace=wrap;html=1;aspect=fixed;strokeColor=none;fillColor=#C4C4C4;" parent="1" vertex="1">
          <mxGeometry x="5090.25" y="5105" width="30" height="30" as="geometry" />
        </mxCell>
        <mxCell id="HgGfvKjObObi69bd0dLE-356" value="&lt;span style=&quot;font-size: 24px;&quot;&gt;( /order )&lt;/span&gt;" style="text;html=1;align=center;verticalAlign=middle;whiteSpace=wrap;rounded=0;" parent="1" vertex="1">
          <mxGeometry x="5000.25" y="5143" width="500" height="30" as="geometry" />
        </mxCell>
        <mxCell id="HgGfvKjObObi69bd0dLE-357" value="&lt;span style=&quot;font-size: 36px;&quot;&gt;내 주문 페이지&lt;/span&gt;" style="text;html=1;align=center;verticalAlign=middle;whiteSpace=wrap;rounded=0;" parent="1" vertex="1">
          <mxGeometry x="5000.25" y="5177" width="500" height="30" as="geometry" />
        </mxCell>
        <mxCell id="HgGfvKjObObi69bd0dLE-358" value="" style="shape=ext;double=1;rounded=0;whiteSpace=wrap;html=1;strokeColor=none;fillColor=#CCCCCC;" parent="1" vertex="1">
          <mxGeometry x="5060.25" y="5570" width="380" height="80" as="geometry" />
        </mxCell>
        <mxCell id="HgGfvKjObObi69bd0dLE-359" value="" style="shape=ext;double=1;rounded=0;whiteSpace=wrap;html=1;strokeColor=none;fillColor=#CCCCCC;" parent="1" vertex="1">
          <mxGeometry x="5060.25" y="5460" width="380" height="80" as="geometry" />
        </mxCell>
        <mxCell id="HgGfvKjObObi69bd0dLE-360" value="" style="shape=ext;double=1;rounded=0;whiteSpace=wrap;html=1;strokeColor=none;fillColor=#CCCCCC;" parent="1" vertex="1">
          <mxGeometry x="5059.25" y="5350" width="380" height="80" as="geometry" />
        </mxCell>
        <mxCell id="HgGfvKjObObi69bd0dLE-361" value="" style="shape=ext;double=1;rounded=0;whiteSpace=wrap;html=1;strokeColor=none;fillColor=#CCCCCC;" parent="1" vertex="1">
          <mxGeometry x="5059.25" y="5247" width="380" height="80" as="geometry" />
        </mxCell>
        <mxCell id="HgGfvKjObObi69bd0dLE-362" value="" style="rounded=0;whiteSpace=wrap;html=1;strokeColor=none;shadow=1;" parent="1" vertex="1">
          <mxGeometry x="5000.25" y="5820" width="500" height="600" as="geometry" />
        </mxCell>
        <mxCell id="HgGfvKjObObi69bd0dLE-363" value="" style="rounded=0;whiteSpace=wrap;html=1;fillColor=#808080;shadow=0;strokeColor=none;" parent="1" vertex="1">
          <mxGeometry x="5000.25" y="5820" width="500" height="40" as="geometry" />
        </mxCell>
        <mxCell id="HgGfvKjObObi69bd0dLE-364" value="" style="ellipse;whiteSpace=wrap;html=1;aspect=fixed;strokeColor=none;fillColor=#C4C4C4;" parent="1" vertex="1">
          <mxGeometry x="5010.25" y="5825" width="30" height="30" as="geometry" />
        </mxCell>
        <mxCell id="HgGfvKjObObi69bd0dLE-365" value="" style="ellipse;whiteSpace=wrap;html=1;aspect=fixed;strokeColor=none;fillColor=#C4C4C4;" parent="1" vertex="1">
          <mxGeometry x="5050.25" y="5825" width="30" height="30" as="geometry" />
        </mxCell>
        <mxCell id="HgGfvKjObObi69bd0dLE-366" value="" style="ellipse;whiteSpace=wrap;html=1;aspect=fixed;strokeColor=none;fillColor=#C4C4C4;" parent="1" vertex="1">
          <mxGeometry x="5090.25" y="5825" width="30" height="30" as="geometry" />
        </mxCell>
        <mxCell id="HgGfvKjObObi69bd0dLE-367" value="&lt;span style=&quot;font-size: 24px;&quot;&gt;( /chat )&lt;/span&gt;" style="text;html=1;align=center;verticalAlign=middle;whiteSpace=wrap;rounded=0;" parent="1" vertex="1">
          <mxGeometry x="5000.25" y="5863" width="500" height="30" as="geometry" />
        </mxCell>
        <mxCell id="HgGfvKjObObi69bd0dLE-368" value="&lt;span style=&quot;font-size: 36px;&quot;&gt;채팅 페이지&lt;/span&gt;" style="text;html=1;align=center;verticalAlign=middle;whiteSpace=wrap;rounded=0;" parent="1" vertex="1">
          <mxGeometry x="5000.25" y="5897" width="500" height="30" as="geometry" />
        </mxCell>
        <mxCell id="HgGfvKjObObi69bd0dLE-370" value="" style="shape=ext;double=1;rounded=0;whiteSpace=wrap;html=1;strokeColor=none;fillColor=#CCCCCC;" parent="1" vertex="1">
          <mxGeometry x="5061.25" y="5970" width="380" height="320" as="geometry" />
        </mxCell>
        <mxCell id="HgGfvKjObObi69bd0dLE-371" value="" style="shape=ext;double=1;rounded=0;whiteSpace=wrap;html=1;strokeColor=none;fillColor=#CCCCCC;" parent="1" vertex="1">
          <mxGeometry x="5060.25" y="6310" width="380" height="60" as="geometry" />
        </mxCell>
        <mxCell id="HgGfvKjObObi69bd0dLE-383" value="" style="rounded=0;whiteSpace=wrap;html=1;strokeColor=none;shadow=1;" parent="1" vertex="1">
          <mxGeometry x="8419.75" y="2351.25" width="500" height="600" as="geometry" />
        </mxCell>
        <mxCell id="HgGfvKjObObi69bd0dLE-384" value="" style="rounded=0;whiteSpace=wrap;html=1;fillColor=#808080;shadow=0;strokeColor=none;" parent="1" vertex="1">
          <mxGeometry x="8419.75" y="2351.25" width="500" height="40" as="geometry" />
        </mxCell>
        <mxCell id="HgGfvKjObObi69bd0dLE-385" value="" style="ellipse;whiteSpace=wrap;html=1;aspect=fixed;strokeColor=none;fillColor=#C4C4C4;" parent="1" vertex="1">
          <mxGeometry x="8429.75" y="2356.25" width="30" height="30" as="geometry" />
        </mxCell>
        <mxCell id="HgGfvKjObObi69bd0dLE-386" value="" style="ellipse;whiteSpace=wrap;html=1;aspect=fixed;strokeColor=none;fillColor=#C4C4C4;" parent="1" vertex="1">
          <mxGeometry x="8469.75" y="2356.25" width="30" height="30" as="geometry" />
        </mxCell>
        <mxCell id="HgGfvKjObObi69bd0dLE-387" value="" style="ellipse;whiteSpace=wrap;html=1;aspect=fixed;strokeColor=none;fillColor=#C4C4C4;" parent="1" vertex="1">
          <mxGeometry x="8509.75" y="2356.25" width="30" height="30" as="geometry" />
        </mxCell>
        <mxCell id="HgGfvKjObObi69bd0dLE-388" value="&lt;span style=&quot;font-size: 24px;&quot;&gt;( /supervisor/user )&lt;/span&gt;" style="text;html=1;align=center;verticalAlign=middle;whiteSpace=wrap;rounded=0;" parent="1" vertex="1">
          <mxGeometry x="8419.75" y="2394.25" width="500" height="30" as="geometry" />
        </mxCell>
        <mxCell id="HgGfvKjObObi69bd0dLE-389" value="&lt;span style=&quot;font-size: 36px;&quot;&gt;사용자 관리 페이지&lt;/span&gt;" style="text;html=1;align=center;verticalAlign=middle;whiteSpace=wrap;rounded=0;" parent="1" vertex="1">
          <mxGeometry x="8419.75" y="2428.25" width="500" height="30" as="geometry" />
        </mxCell>
        <mxCell id="HgGfvKjObObi69bd0dLE-390" value="" style="shape=ext;double=1;rounded=0;whiteSpace=wrap;html=1;strokeColor=none;fillColor=#CCCCCC;" parent="1" vertex="1">
          <mxGeometry x="8479.75" y="2821.25" width="380" height="80" as="geometry" />
        </mxCell>
        <mxCell id="HgGfvKjObObi69bd0dLE-391" value="" style="shape=ext;double=1;rounded=0;whiteSpace=wrap;html=1;strokeColor=none;fillColor=#CCCCCC;" parent="1" vertex="1">
          <mxGeometry x="8479.75" y="2711.25" width="380" height="80" as="geometry" />
        </mxCell>
        <mxCell id="HgGfvKjObObi69bd0dLE-392" value="" style="shape=ext;double=1;rounded=0;whiteSpace=wrap;html=1;strokeColor=none;fillColor=#CCCCCC;" parent="1" vertex="1">
          <mxGeometry x="8478.75" y="2601.25" width="380" height="80" as="geometry" />
        </mxCell>
        <mxCell id="HgGfvKjObObi69bd0dLE-393" value="" style="shape=ext;double=1;rounded=0;whiteSpace=wrap;html=1;strokeColor=none;fillColor=#CCCCCC;" parent="1" vertex="1">
          <mxGeometry x="8478.75" y="2498.25" width="380" height="80" as="geometry" />
        </mxCell>
        <mxCell id="HgGfvKjObObi69bd0dLE-394" value="" style="rounded=0;whiteSpace=wrap;html=1;strokeColor=none;shadow=1;" parent="1" vertex="1">
          <mxGeometry x="7790" y="2351.25" width="500" height="600" as="geometry" />
        </mxCell>
        <mxCell id="HgGfvKjObObi69bd0dLE-395" value="" style="rounded=0;whiteSpace=wrap;html=1;fillColor=#808080;shadow=0;strokeColor=none;" parent="1" vertex="1">
          <mxGeometry x="7790" y="2351.25" width="500" height="40" as="geometry" />
        </mxCell>
        <mxCell id="HgGfvKjObObi69bd0dLE-396" value="" style="ellipse;whiteSpace=wrap;html=1;aspect=fixed;strokeColor=none;fillColor=#C4C4C4;" parent="1" vertex="1">
          <mxGeometry x="7800" y="2356.25" width="30" height="30" as="geometry" />
        </mxCell>
        <mxCell id="HgGfvKjObObi69bd0dLE-397" value="" style="ellipse;whiteSpace=wrap;html=1;aspect=fixed;strokeColor=none;fillColor=#C4C4C4;" parent="1" vertex="1">
          <mxGeometry x="7840" y="2356.25" width="30" height="30" as="geometry" />
        </mxCell>
        <mxCell id="HgGfvKjObObi69bd0dLE-398" value="" style="ellipse;whiteSpace=wrap;html=1;aspect=fixed;strokeColor=none;fillColor=#C4C4C4;" parent="1" vertex="1">
          <mxGeometry x="7880" y="2356.25" width="30" height="30" as="geometry" />
        </mxCell>
        <mxCell id="HgGfvKjObObi69bd0dLE-399" value="&lt;span style=&quot;font-size: 24px;&quot;&gt;( /supervisor )&lt;/span&gt;" style="text;html=1;align=center;verticalAlign=middle;whiteSpace=wrap;rounded=0;" parent="1" vertex="1">
          <mxGeometry x="7790" y="2394.25" width="500" height="30" as="geometry" />
        </mxCell>
        <mxCell id="HgGfvKjObObi69bd0dLE-400" value="&lt;span style=&quot;font-size: 36px;&quot;&gt;사이트 관리자 메뉴 페이지&lt;/span&gt;" style="text;html=1;align=center;verticalAlign=middle;whiteSpace=wrap;rounded=0;" parent="1" vertex="1">
          <mxGeometry x="7790" y="2428.25" width="500" height="30" as="geometry" />
        </mxCell>
        <mxCell id="HgGfvKjObObi69bd0dLE-401" value="" style="shape=ext;double=1;rounded=0;whiteSpace=wrap;html=1;strokeColor=none;fillColor=#CCCCCC;" parent="1" vertex="1">
          <mxGeometry x="7850" y="2821.25" width="380" height="80" as="geometry" />
        </mxCell>
        <mxCell id="HgGfvKjObObi69bd0dLE-402" value="" style="shape=ext;double=1;rounded=0;whiteSpace=wrap;html=1;strokeColor=none;fillColor=#CCCCCC;" parent="1" vertex="1">
          <mxGeometry x="7850" y="2711.25" width="380" height="80" as="geometry" />
        </mxCell>
        <mxCell id="HgGfvKjObObi69bd0dLE-403" value="" style="shape=ext;double=1;rounded=0;whiteSpace=wrap;html=1;strokeColor=none;fillColor=#CCCCCC;" parent="1" vertex="1">
          <mxGeometry x="7849" y="2601.25" width="380" height="80" as="geometry" />
        </mxCell>
        <mxCell id="HgGfvKjObObi69bd0dLE-404" value="" style="shape=ext;double=1;rounded=0;whiteSpace=wrap;html=1;strokeColor=none;fillColor=#CCCCCC;" parent="1" vertex="1">
          <mxGeometry x="7849" y="2498.25" width="380" height="80" as="geometry" />
        </mxCell>
        <mxCell id="HgGfvKjObObi69bd0dLE-405" value="" style="rounded=0;whiteSpace=wrap;html=1;strokeColor=none;shadow=1;" parent="1" vertex="1">
          <mxGeometry x="9050.75" y="2351.25" width="500" height="600" as="geometry" />
        </mxCell>
        <mxCell id="HgGfvKjObObi69bd0dLE-406" value="" style="rounded=0;whiteSpace=wrap;html=1;fillColor=#808080;shadow=0;strokeColor=none;" parent="1" vertex="1">
          <mxGeometry x="9050.75" y="2351.25" width="500" height="40" as="geometry" />
        </mxCell>
        <mxCell id="HgGfvKjObObi69bd0dLE-407" value="" style="ellipse;whiteSpace=wrap;html=1;aspect=fixed;strokeColor=none;fillColor=#C4C4C4;" parent="1" vertex="1">
          <mxGeometry x="9060.75" y="2356.25" width="30" height="30" as="geometry" />
        </mxCell>
        <mxCell id="HgGfvKjObObi69bd0dLE-408" value="" style="ellipse;whiteSpace=wrap;html=1;aspect=fixed;strokeColor=none;fillColor=#C4C4C4;" parent="1" vertex="1">
          <mxGeometry x="9100.75" y="2356.25" width="30" height="30" as="geometry" />
        </mxCell>
        <mxCell id="HgGfvKjObObi69bd0dLE-409" value="" style="ellipse;whiteSpace=wrap;html=1;aspect=fixed;strokeColor=none;fillColor=#C4C4C4;" parent="1" vertex="1">
          <mxGeometry x="9140.75" y="2356.25" width="30" height="30" as="geometry" />
        </mxCell>
        <mxCell id="HgGfvKjObObi69bd0dLE-410" value="&lt;span style=&quot;font-size: 24px;&quot;&gt;( /supervisor/partner )&lt;/span&gt;" style="text;html=1;align=center;verticalAlign=middle;whiteSpace=wrap;rounded=0;" parent="1" vertex="1">
          <mxGeometry x="9050.75" y="2394.25" width="500" height="30" as="geometry" />
        </mxCell>
        <mxCell id="HgGfvKjObObi69bd0dLE-411" value="&lt;span style=&quot;font-size: 36px;&quot;&gt;파트너 관리 페이지&lt;/span&gt;" style="text;html=1;align=center;verticalAlign=middle;whiteSpace=wrap;rounded=0;" parent="1" vertex="1">
          <mxGeometry x="9050.75" y="2428.25" width="500" height="30" as="geometry" />
        </mxCell>
        <mxCell id="HgGfvKjObObi69bd0dLE-412" value="" style="shape=ext;double=1;rounded=0;whiteSpace=wrap;html=1;strokeColor=none;fillColor=#CCCCCC;" parent="1" vertex="1">
          <mxGeometry x="9110.75" y="2821.25" width="380" height="80" as="geometry" />
        </mxCell>
        <mxCell id="HgGfvKjObObi69bd0dLE-413" value="" style="shape=ext;double=1;rounded=0;whiteSpace=wrap;html=1;strokeColor=none;fillColor=#CCCCCC;" parent="1" vertex="1">
          <mxGeometry x="9110.75" y="2711.25" width="380" height="80" as="geometry" />
        </mxCell>
        <mxCell id="HgGfvKjObObi69bd0dLE-414" value="" style="shape=ext;double=1;rounded=0;whiteSpace=wrap;html=1;strokeColor=none;fillColor=#CCCCCC;" parent="1" vertex="1">
          <mxGeometry x="9109.75" y="2601.25" width="380" height="80" as="geometry" />
        </mxCell>
        <mxCell id="HgGfvKjObObi69bd0dLE-415" value="" style="shape=ext;double=1;rounded=0;whiteSpace=wrap;html=1;strokeColor=none;fillColor=#CCCCCC;" parent="1" vertex="1">
          <mxGeometry x="9109.75" y="2498.25" width="380" height="80" as="geometry" />
        </mxCell>
        <mxCell id="HgGfvKjObObi69bd0dLE-416" value="" style="rounded=0;whiteSpace=wrap;html=1;strokeColor=none;shadow=1;" parent="1" vertex="1">
          <mxGeometry x="9670" y="2351.25" width="500" height="600" as="geometry" />
        </mxCell>
        <mxCell id="HgGfvKjObObi69bd0dLE-417" value="" style="rounded=0;whiteSpace=wrap;html=1;fillColor=#808080;shadow=0;strokeColor=none;" parent="1" vertex="1">
          <mxGeometry x="9670" y="2351.25" width="500" height="40" as="geometry" />
        </mxCell>
        <mxCell id="HgGfvKjObObi69bd0dLE-418" value="" style="ellipse;whiteSpace=wrap;html=1;aspect=fixed;strokeColor=none;fillColor=#C4C4C4;" parent="1" vertex="1">
          <mxGeometry x="9680" y="2356.25" width="30" height="30" as="geometry" />
        </mxCell>
        <mxCell id="HgGfvKjObObi69bd0dLE-419" value="" style="ellipse;whiteSpace=wrap;html=1;aspect=fixed;strokeColor=none;fillColor=#C4C4C4;" parent="1" vertex="1">
          <mxGeometry x="9720" y="2356.25" width="30" height="30" as="geometry" />
        </mxCell>
        <mxCell id="HgGfvKjObObi69bd0dLE-420" value="" style="ellipse;whiteSpace=wrap;html=1;aspect=fixed;strokeColor=none;fillColor=#C4C4C4;" parent="1" vertex="1">
          <mxGeometry x="9760" y="2356.25" width="30" height="30" as="geometry" />
        </mxCell>
        <mxCell id="HgGfvKjObObi69bd0dLE-421" value="&lt;span style=&quot;font-size: 24px;&quot;&gt;( /supervisor/orders )&lt;/span&gt;" style="text;html=1;align=center;verticalAlign=middle;whiteSpace=wrap;rounded=0;" parent="1" vertex="1">
          <mxGeometry x="9670" y="2394.25" width="500" height="30" as="geometry" />
        </mxCell>
        <mxCell id="HgGfvKjObObi69bd0dLE-422" value="&lt;span style=&quot;font-size: 36px;&quot;&gt;모든 요청 페이지&lt;/span&gt;" style="text;html=1;align=center;verticalAlign=middle;whiteSpace=wrap;rounded=0;" parent="1" vertex="1">
          <mxGeometry x="9670" y="2428.25" width="500" height="30" as="geometry" />
        </mxCell>
        <mxCell id="HgGfvKjObObi69bd0dLE-423" value="" style="shape=ext;double=1;rounded=0;whiteSpace=wrap;html=1;strokeColor=none;fillColor=#CCCCCC;" parent="1" vertex="1">
          <mxGeometry x="9730" y="2821.25" width="380" height="80" as="geometry" />
        </mxCell>
        <mxCell id="HgGfvKjObObi69bd0dLE-424" value="" style="shape=ext;double=1;rounded=0;whiteSpace=wrap;html=1;strokeColor=none;fillColor=#CCCCCC;" parent="1" vertex="1">
          <mxGeometry x="9730" y="2711.25" width="380" height="80" as="geometry" />
        </mxCell>
        <mxCell id="HgGfvKjObObi69bd0dLE-425" value="" style="shape=ext;double=1;rounded=0;whiteSpace=wrap;html=1;strokeColor=none;fillColor=#CCCCCC;" parent="1" vertex="1">
          <mxGeometry x="9729" y="2601.25" width="380" height="80" as="geometry" />
        </mxCell>
        <mxCell id="HgGfvKjObObi69bd0dLE-426" value="" style="shape=ext;double=1;rounded=0;whiteSpace=wrap;html=1;strokeColor=none;fillColor=#CCCCCC;" parent="1" vertex="1">
          <mxGeometry x="9729" y="2498.25" width="380" height="80" as="geometry" />
        </mxCell>
        <mxCell id="HgGfvKjObObi69bd0dLE-427" value="" style="rounded=0;whiteSpace=wrap;html=1;strokeColor=none;shadow=1;" parent="1" vertex="1">
          <mxGeometry x="10300" y="2351.25" width="500" height="600" as="geometry" />
        </mxCell>
        <mxCell id="HgGfvKjObObi69bd0dLE-428" value="" style="rounded=0;whiteSpace=wrap;html=1;fillColor=#808080;shadow=0;strokeColor=none;" parent="1" vertex="1">
          <mxGeometry x="10300" y="2351.25" width="500" height="40" as="geometry" />
        </mxCell>
        <mxCell id="HgGfvKjObObi69bd0dLE-429" value="" style="ellipse;whiteSpace=wrap;html=1;aspect=fixed;strokeColor=none;fillColor=#C4C4C4;" parent="1" vertex="1">
          <mxGeometry x="10310" y="2356.25" width="30" height="30" as="geometry" />
        </mxCell>
        <mxCell id="HgGfvKjObObi69bd0dLE-430" value="" style="ellipse;whiteSpace=wrap;html=1;aspect=fixed;strokeColor=none;fillColor=#C4C4C4;" parent="1" vertex="1">
          <mxGeometry x="10350" y="2356.25" width="30" height="30" as="geometry" />
        </mxCell>
        <mxCell id="HgGfvKjObObi69bd0dLE-431" value="" style="ellipse;whiteSpace=wrap;html=1;aspect=fixed;strokeColor=none;fillColor=#C4C4C4;" parent="1" vertex="1">
          <mxGeometry x="10390" y="2356.25" width="30" height="30" as="geometry" />
        </mxCell>
        <mxCell id="HgGfvKjObObi69bd0dLE-432" value="&lt;span style=&quot;font-size: 24px;&quot;&gt;( /supervisor/order&amp;nbsp; )&lt;/span&gt;" style="text;html=1;align=center;verticalAlign=middle;whiteSpace=wrap;rounded=0;" parent="1" vertex="1">
          <mxGeometry x="10300" y="2394.25" width="500" height="30" as="geometry" />
        </mxCell>
        <mxCell id="HgGfvKjObObi69bd0dLE-433" value="&lt;span style=&quot;font-size: 36px;&quot;&gt;결제 기록 페이지&lt;/span&gt;" style="text;html=1;align=center;verticalAlign=middle;whiteSpace=wrap;rounded=0;" parent="1" vertex="1">
          <mxGeometry x="10300" y="2428.25" width="500" height="30" as="geometry" />
        </mxCell>
        <mxCell id="HgGfvKjObObi69bd0dLE-434" value="" style="shape=ext;double=1;rounded=0;whiteSpace=wrap;html=1;strokeColor=none;fillColor=#CCCCCC;" parent="1" vertex="1">
          <mxGeometry x="10360" y="2821.25" width="380" height="80" as="geometry" />
        </mxCell>
        <mxCell id="HgGfvKjObObi69bd0dLE-435" value="" style="shape=ext;double=1;rounded=0;whiteSpace=wrap;html=1;strokeColor=none;fillColor=#CCCCCC;" parent="1" vertex="1">
          <mxGeometry x="10360" y="2711.25" width="380" height="80" as="geometry" />
        </mxCell>
        <mxCell id="HgGfvKjObObi69bd0dLE-436" value="" style="shape=ext;double=1;rounded=0;whiteSpace=wrap;html=1;strokeColor=none;fillColor=#CCCCCC;" parent="1" vertex="1">
          <mxGeometry x="10359" y="2601.25" width="380" height="80" as="geometry" />
        </mxCell>
        <mxCell id="HgGfvKjObObi69bd0dLE-437" value="" style="shape=ext;double=1;rounded=0;whiteSpace=wrap;html=1;strokeColor=none;fillColor=#CCCCCC;" parent="1" vertex="1">
          <mxGeometry x="10359" y="2498.25" width="380" height="80" as="geometry" />
        </mxCell>
        <mxCell id="HgGfvKjObObi69bd0dLE-440" value="" style="rounded=0;whiteSpace=wrap;html=1;strokeColor=none;shadow=1;" parent="1" vertex="1">
          <mxGeometry x="10930" y="2351.25" width="500" height="600" as="geometry" />
        </mxCell>
        <mxCell id="HgGfvKjObObi69bd0dLE-441" value="" style="rounded=0;whiteSpace=wrap;html=1;fillColor=#808080;shadow=0;strokeColor=none;" parent="1" vertex="1">
          <mxGeometry x="10930" y="2351.25" width="500" height="40" as="geometry" />
        </mxCell>
        <mxCell id="HgGfvKjObObi69bd0dLE-442" value="" style="ellipse;whiteSpace=wrap;html=1;aspect=fixed;strokeColor=none;fillColor=#C4C4C4;" parent="1" vertex="1">
          <mxGeometry x="10940" y="2356.25" width="30" height="30" as="geometry" />
        </mxCell>
        <mxCell id="HgGfvKjObObi69bd0dLE-443" value="" style="ellipse;whiteSpace=wrap;html=1;aspect=fixed;strokeColor=none;fillColor=#C4C4C4;" parent="1" vertex="1">
          <mxGeometry x="10980" y="2356.25" width="30" height="30" as="geometry" />
        </mxCell>
        <mxCell id="HgGfvKjObObi69bd0dLE-444" value="" style="ellipse;whiteSpace=wrap;html=1;aspect=fixed;strokeColor=none;fillColor=#C4C4C4;" parent="1" vertex="1">
          <mxGeometry x="11020" y="2356.25" width="30" height="30" as="geometry" />
        </mxCell>
        <mxCell id="HgGfvKjObObi69bd0dLE-445" value="&lt;span style=&quot;font-size: 24px;&quot;&gt;( /supervisor/send_push )&lt;/span&gt;" style="text;html=1;align=center;verticalAlign=middle;whiteSpace=wrap;rounded=0;" parent="1" vertex="1">
          <mxGeometry x="10930" y="2394.25" width="500" height="30" as="geometry" />
        </mxCell>
        <mxCell id="HgGfvKjObObi69bd0dLE-446" value="&lt;span style=&quot;font-size: 36px;&quot;&gt;푸시 알림 발송 페이지&lt;/span&gt;" style="text;html=1;align=center;verticalAlign=middle;whiteSpace=wrap;rounded=0;" parent="1" vertex="1">
          <mxGeometry x="10930" y="2428.25" width="500" height="30" as="geometry" />
        </mxCell>
        <mxCell id="HgGfvKjObObi69bd0dLE-447" value="" style="shape=ext;double=1;rounded=0;whiteSpace=wrap;html=1;strokeColor=none;fillColor=#E6E6E6;" parent="1" vertex="1">
          <mxGeometry x="11020.75" y="2501.25" width="318.5" height="400" as="geometry" />
        </mxCell>
        <mxCell id="HgGfvKjObObi69bd0dLE-448" value="" style="rounded=0;whiteSpace=wrap;html=1;strokeColor=none;fillColor=#CCCCCC;" parent="1" vertex="1">
          <mxGeometry x="11043" y="2631.25" width="274" height="230" as="geometry" />
        </mxCell>
        <mxCell id="HgGfvKjObObi69bd0dLE-449" value="" style="rounded=0;whiteSpace=wrap;html=1;strokeColor=none;fillColor=#CCCCCC;" parent="1" vertex="1">
          <mxGeometry x="11043" y="2538.75" width="274" height="62.5" as="geometry" />
        </mxCell>
        <mxCell id="HgGfvKjObObi69bd0dLE-463" value="" style="rounded=0;whiteSpace=wrap;html=1;strokeColor=none;shadow=1;" parent="1" vertex="1">
          <mxGeometry x="12180" y="2351.25" width="500" height="600" as="geometry" />
        </mxCell>
        <mxCell id="HgGfvKjObObi69bd0dLE-464" value="" style="rounded=0;whiteSpace=wrap;html=1;fillColor=#808080;shadow=0;strokeColor=none;" parent="1" vertex="1">
          <mxGeometry x="12180" y="2351.25" width="500" height="40" as="geometry" />
        </mxCell>
        <mxCell id="HgGfvKjObObi69bd0dLE-465" value="" style="ellipse;whiteSpace=wrap;html=1;aspect=fixed;strokeColor=none;fillColor=#C4C4C4;" parent="1" vertex="1">
          <mxGeometry x="12190" y="2356.25" width="30" height="30" as="geometry" />
        </mxCell>
        <mxCell id="HgGfvKjObObi69bd0dLE-466" value="" style="ellipse;whiteSpace=wrap;html=1;aspect=fixed;strokeColor=none;fillColor=#C4C4C4;" parent="1" vertex="1">
          <mxGeometry x="12230" y="2356.25" width="30" height="30" as="geometry" />
        </mxCell>
        <mxCell id="HgGfvKjObObi69bd0dLE-467" value="" style="ellipse;whiteSpace=wrap;html=1;aspect=fixed;strokeColor=none;fillColor=#C4C4C4;" parent="1" vertex="1">
          <mxGeometry x="12270" y="2356.25" width="30" height="30" as="geometry" />
        </mxCell>
        <mxCell id="HgGfvKjObObi69bd0dLE-468" value="&lt;span style=&quot;font-size: 24px;&quot;&gt;( /supervisor/server_setting )&lt;/span&gt;" style="text;html=1;align=center;verticalAlign=middle;whiteSpace=wrap;rounded=0;" parent="1" vertex="1">
          <mxGeometry x="12180" y="2394.25" width="500" height="30" as="geometry" />
        </mxCell>
        <mxCell id="HgGfvKjObObi69bd0dLE-469" value="&lt;span style=&quot;font-size: 36px;&quot;&gt;서버 설정 관리 페이지&lt;/span&gt;" style="text;html=1;align=center;verticalAlign=middle;whiteSpace=wrap;rounded=0;" parent="1" vertex="1">
          <mxGeometry x="12180" y="2428.25" width="500" height="30" as="geometry" />
        </mxCell>
        <mxCell id="HgGfvKjObObi69bd0dLE-470" value="" style="shape=ext;double=1;rounded=0;whiteSpace=wrap;html=1;strokeColor=none;fillColor=#CCCCCC;" parent="1" vertex="1">
          <mxGeometry x="12240" y="2821.25" width="380" height="80" as="geometry" />
        </mxCell>
        <mxCell id="HgGfvKjObObi69bd0dLE-471" value="" style="shape=ext;double=1;rounded=0;whiteSpace=wrap;html=1;strokeColor=none;fillColor=#CCCCCC;" parent="1" vertex="1">
          <mxGeometry x="12240" y="2711.25" width="380" height="80" as="geometry" />
        </mxCell>
        <mxCell id="HgGfvKjObObi69bd0dLE-472" value="" style="shape=ext;double=1;rounded=0;whiteSpace=wrap;html=1;strokeColor=none;fillColor=#CCCCCC;" parent="1" vertex="1">
          <mxGeometry x="12239" y="2601.25" width="380" height="80" as="geometry" />
        </mxCell>
        <mxCell id="HgGfvKjObObi69bd0dLE-473" value="" style="shape=ext;double=1;rounded=0;whiteSpace=wrap;html=1;strokeColor=none;fillColor=#CCCCCC;" parent="1" vertex="1">
          <mxGeometry x="12239" y="2498.25" width="380" height="80" as="geometry" />
        </mxCell>
        <mxCell id="HgGfvKjObObi69bd0dLE-475" value="" style="rounded=0;whiteSpace=wrap;html=1;strokeColor=none;shadow=1;" parent="1" vertex="1">
          <mxGeometry x="4870" y="2351.25" width="500" height="600" as="geometry" />
        </mxCell>
        <mxCell id="HgGfvKjObObi69bd0dLE-476" value="" style="rounded=0;whiteSpace=wrap;html=1;fillColor=#808080;shadow=0;strokeColor=none;" parent="1" vertex="1">
          <mxGeometry x="4870" y="2351.25" width="500" height="40" as="geometry" />
        </mxCell>
        <mxCell id="HgGfvKjObObi69bd0dLE-477" value="" style="ellipse;whiteSpace=wrap;html=1;aspect=fixed;strokeColor=none;fillColor=#C4C4C4;" parent="1" vertex="1">
          <mxGeometry x="4880" y="2356.25" width="30" height="30" as="geometry" />
        </mxCell>
        <mxCell id="HgGfvKjObObi69bd0dLE-478" value="" style="ellipse;whiteSpace=wrap;html=1;aspect=fixed;strokeColor=none;fillColor=#C4C4C4;" parent="1" vertex="1">
          <mxGeometry x="4920" y="2356.25" width="30" height="30" as="geometry" />
        </mxCell>
        <mxCell id="HgGfvKjObObi69bd0dLE-479" value="" style="ellipse;whiteSpace=wrap;html=1;aspect=fixed;strokeColor=none;fillColor=#C4C4C4;" parent="1" vertex="1">
          <mxGeometry x="4960" y="2356.25" width="30" height="30" as="geometry" />
        </mxCell>
        <mxCell id="HgGfvKjObObi69bd0dLE-480" value="&lt;span style=&quot;font-size: 24px;&quot;&gt;( /profile )&lt;/span&gt;" style="text;html=1;align=center;verticalAlign=middle;whiteSpace=wrap;rounded=0;" parent="1" vertex="1">
          <mxGeometry x="4870" y="2394.25" width="500" height="30" as="geometry" />
        </mxCell>
        <mxCell id="HgGfvKjObObi69bd0dLE-481" value="&lt;span style=&quot;font-size: 36px;&quot;&gt;프로필 관리 페이지&lt;/span&gt;" style="text;html=1;align=center;verticalAlign=middle;whiteSpace=wrap;rounded=0;" parent="1" vertex="1">
          <mxGeometry x="4870" y="2428.25" width="500" height="30" as="geometry" />
        </mxCell>
        <mxCell id="HgGfvKjObObi69bd0dLE-482" value="" style="shape=ext;double=1;rounded=0;whiteSpace=wrap;html=1;strokeColor=none;fillColor=#E6E6E6;" parent="1" vertex="1">
          <mxGeometry x="4930" y="2501.25" width="380" height="60" as="geometry" />
        </mxCell>
        <mxCell id="HgGfvKjObObi69bd0dLE-483" value="" style="shape=ext;double=1;rounded=0;whiteSpace=wrap;html=1;strokeColor=none;fillColor=#E6E6E6;" parent="1" vertex="1">
          <mxGeometry x="4931" y="2581.25" width="380" height="240" as="geometry" />
        </mxCell>
        <mxCell id="HgGfvKjObObi69bd0dLE-484" value="" style="shape=ext;double=1;rounded=0;whiteSpace=wrap;html=1;strokeColor=none;fillColor=#E6E6E6;" parent="1" vertex="1">
          <mxGeometry x="4930" y="2841.25" width="380" height="60" as="geometry" />
        </mxCell>
        <mxCell id="HgGfvKjObObi69bd0dLE-485" value="" style="rounded=0;whiteSpace=wrap;html=1;strokeColor=none;fillColor=#CCCCCC;" parent="1" vertex="1">
          <mxGeometry x="4980" y="2636.25" width="129" height="130" as="geometry" />
        </mxCell>
        <mxCell id="HgGfvKjObObi69bd0dLE-486" value="" style="shape=actor;whiteSpace=wrap;html=1;strokeColor=none;" parent="1" vertex="1">
          <mxGeometry x="4998.5" y="2656.25" width="92" height="110" as="geometry" />
        </mxCell>
        <mxCell id="HgGfvKjObObi69bd0dLE-487" value="" style="rounded=0;whiteSpace=wrap;html=1;strokeColor=none;fillColor=#CCCCCC;" parent="1" vertex="1">
          <mxGeometry x="5132" y="2636.25" width="120" height="35" as="geometry" />
        </mxCell>
        <mxCell id="HgGfvKjObObi69bd0dLE-488" value="" style="rounded=0;whiteSpace=wrap;html=1;strokeColor=none;fillColor=#CCCCCC;" parent="1" vertex="1">
          <mxGeometry x="5132" y="2683.75" width="120" height="35" as="geometry" />
        </mxCell>
        <mxCell id="HgGfvKjObObi69bd0dLE-489" value="" style="rounded=0;whiteSpace=wrap;html=1;strokeColor=none;fillColor=#CCCCCC;" parent="1" vertex="1">
          <mxGeometry x="5132" y="2731.25" width="120" height="35" as="geometry" />
        </mxCell>
        <mxCell id="2fxI0LMGuCle4bnKfHRY-1" value="z" style="rounded=0;whiteSpace=wrap;html=1;strokeColor=none;shadow=1;" parent="1" vertex="1">
          <mxGeometry x="4247" y="2356.25" width="500" height="600" as="geometry" />
        </mxCell>
        <mxCell id="2fxI0LMGuCle4bnKfHRY-2" value="" style="rounded=0;whiteSpace=wrap;html=1;fillColor=#808080;shadow=0;strokeColor=none;" parent="1" vertex="1">
          <mxGeometry x="4247" y="2356.25" width="500" height="40" as="geometry" />
        </mxCell>
        <mxCell id="2fxI0LMGuCle4bnKfHRY-3" value="" style="ellipse;whiteSpace=wrap;html=1;aspect=fixed;strokeColor=none;fillColor=#C4C4C4;" parent="1" vertex="1">
          <mxGeometry x="4257" y="2361.25" width="30" height="30" as="geometry" />
        </mxCell>
        <mxCell id="2fxI0LMGuCle4bnKfHRY-4" value="" style="ellipse;whiteSpace=wrap;html=1;aspect=fixed;strokeColor=none;fillColor=#C4C4C4;" parent="1" vertex="1">
          <mxGeometry x="4297" y="2361.25" width="30" height="30" as="geometry" />
        </mxCell>
        <mxCell id="2fxI0LMGuCle4bnKfHRY-5" value="" style="ellipse;whiteSpace=wrap;html=1;aspect=fixed;strokeColor=none;fillColor=#C4C4C4;" parent="1" vertex="1">
          <mxGeometry x="4337" y="2361.25" width="30" height="30" as="geometry" />
        </mxCell>
        <mxCell id="2fxI0LMGuCle4bnKfHRY-6" value="&lt;font style=&quot;font-size: 24px;&quot;&gt;( /map )&lt;/font&gt;" style="text;html=1;align=center;verticalAlign=middle;whiteSpace=wrap;rounded=0;" parent="1" vertex="1">
          <mxGeometry x="4247" y="2399.25" width="500" height="30" as="geometry" />
        </mxCell>
        <mxCell id="2fxI0LMGuCle4bnKfHRY-7" value="&lt;span style=&quot;font-size: 36px;&quot;&gt;지도 페이지&lt;/span&gt;" style="text;html=1;align=center;verticalAlign=middle;whiteSpace=wrap;rounded=0;" parent="1" vertex="1">
          <mxGeometry x="4247" y="2433.25" width="500" height="30" as="geometry" />
        </mxCell>
        <mxCell id="2fxI0LMGuCle4bnKfHRY-8" value="" style="rounded=0;whiteSpace=wrap;html=1;fillColor=#EDEDED;strokeColor=none;" parent="1" vertex="1">
          <mxGeometry x="4307" y="2506.25" width="380" height="400" as="geometry" />
        </mxCell>
        <mxCell id="2fxI0LMGuCle4bnKfHRY-9" value="" style="rounded=0;whiteSpace=wrap;html=1;strokeColor=none;shadow=1;" parent="1" vertex="1">
          <mxGeometry x="5640" y="5099.5" width="500" height="600" as="geometry" />
        </mxCell>
        <mxCell id="2fxI0LMGuCle4bnKfHRY-10" value="" style="rounded=0;whiteSpace=wrap;html=1;fillColor=#808080;shadow=0;strokeColor=none;" parent="1" vertex="1">
          <mxGeometry x="5640" y="5099.5" width="500" height="40" as="geometry" />
        </mxCell>
        <mxCell id="2fxI0LMGuCle4bnKfHRY-11" value="" style="ellipse;whiteSpace=wrap;html=1;aspect=fixed;strokeColor=none;fillColor=#C4C4C4;" parent="1" vertex="1">
          <mxGeometry x="5650" y="5104.5" width="30" height="30" as="geometry" />
        </mxCell>
        <mxCell id="2fxI0LMGuCle4bnKfHRY-12" value="" style="ellipse;whiteSpace=wrap;html=1;aspect=fixed;strokeColor=none;fillColor=#C4C4C4;" parent="1" vertex="1">
          <mxGeometry x="5690" y="5104.5" width="30" height="30" as="geometry" />
        </mxCell>
        <mxCell id="2fxI0LMGuCle4bnKfHRY-13" value="" style="ellipse;whiteSpace=wrap;html=1;aspect=fixed;strokeColor=none;fillColor=#C4C4C4;" parent="1" vertex="1">
          <mxGeometry x="5730" y="5104.5" width="30" height="30" as="geometry" />
        </mxCell>
        <mxCell id="2fxI0LMGuCle4bnKfHRY-14" value="&lt;span style=&quot;font-size: 24px;&quot;&gt;( /order/estimate )&lt;/span&gt;" style="text;html=1;align=center;verticalAlign=middle;whiteSpace=wrap;rounded=0;" parent="1" vertex="1">
          <mxGeometry x="5640" y="5142.5" width="500" height="30" as="geometry" />
        </mxCell>
        <mxCell id="2fxI0LMGuCle4bnKfHRY-15" value="&lt;span style=&quot;font-size: 36px;&quot;&gt;주문 정보 페이지&lt;/span&gt;" style="text;html=1;align=center;verticalAlign=middle;whiteSpace=wrap;rounded=0;" parent="1" vertex="1">
          <mxGeometry x="5640" y="5176.5" width="500" height="30" as="geometry" />
        </mxCell>
        <mxCell id="2fxI0LMGuCle4bnKfHRY-16" value="" style="shape=ext;double=1;rounded=0;whiteSpace=wrap;html=1;strokeColor=none;fillColor=#CCCCCC;" parent="1" vertex="1">
          <mxGeometry x="5700" y="5569.5" width="380" height="80" as="geometry" />
        </mxCell>
        <mxCell id="2fxI0LMGuCle4bnKfHRY-17" value="" style="shape=ext;double=1;rounded=0;whiteSpace=wrap;html=1;strokeColor=none;fillColor=#CCCCCC;" parent="1" vertex="1">
          <mxGeometry x="5700" y="5459.5" width="380" height="80" as="geometry" />
        </mxCell>
        <mxCell id="2fxI0LMGuCle4bnKfHRY-18" value="" style="shape=ext;double=1;rounded=0;whiteSpace=wrap;html=1;strokeColor=none;fillColor=#CCCCCC;" parent="1" vertex="1">
          <mxGeometry x="5699" y="5349.5" width="380" height="80" as="geometry" />
        </mxCell>
        <mxCell id="2fxI0LMGuCle4bnKfHRY-19" value="" style="shape=ext;double=1;rounded=0;whiteSpace=wrap;html=1;strokeColor=none;fillColor=#CCCCCC;" parent="1" vertex="1">
          <mxGeometry x="5699" y="5246.5" width="380" height="80" as="geometry" />
        </mxCell>
      </root>
    </mxGraphModel>
  </diagram>
</mxfile>
